<svg width="30" height="30" viewBox="0 0 30 30" fill="none" xmlns="http://www.w3.org/2000/svg">
<path d="M14.5009 2.77303C14.8772 2.70374 15.2629 2.71313 15.6357 2.80068C16.1863 2.93038 16.7517 3.01374 17.2841 3.20276C18.3239 3.56925 19.2025 4.21726 19.9387 5.07038C19.9763 5.12212 20.0278 5.16101 20.0865 5.18212C20.1452 5.20324 20.2086 5.20564 20.2686 5.18902C20.7943 5.08398 21.3329 5.07039 21.8628 5.1488C24.2608 5.53439 25.9395 6.88521 26.8378 9.21533C27.0075 9.65622 27.0891 10.1343 27.1807 10.6084C27.2415 10.9236 27.2724 11.2444 27.2728 11.5661C27.2728 11.795 27.2583 12.0238 27.2296 12.2508C26.961 14.4044 25.9279 16.0282 24.1443 17.1247C23.9798 17.2252 23.916 17.3283 23.9165 17.5314C23.9235 20.3131 23.925 23.0948 23.9208 25.8766C23.9208 26.0188 23.9208 26.1621 23.9083 26.3034C23.8839 26.6211 23.7986 26.9304 23.6576 27.2128C23.5165 27.4952 23.3225 27.7448 23.0873 27.9468C22.9187 28.0945 22.7288 28.2133 22.5247 28.2987C22.2017 28.434 21.8567 28.5023 21.5089 28.4998H8.50207C8.20145 28.5015 7.90242 28.454 7.61577 28.359C7.5384 28.3335 7.46291 28.302 7.38988 28.265C6.4911 27.801 6.06905 27.0218 6.06905 25.9806C6.07145 23.177 6.06905 20.3733 6.0796 17.5696C6.0796 17.3524 6.02493 17.2353 5.83692 17.1232C4.47917 16.3123 3.53435 15.1274 3.04756 13.5689C2.96568 13.2956 2.89953 13.0175 2.84948 12.7359C2.6919 11.9343 2.68669 11.108 2.83414 10.3042C2.83414 10.2997 2.83414 10.2957 2.83414 10.2912C3.4792 6.939 6.5007 4.70188 9.62531 5.17947C9.85456 5.21466 9.98692 5.1483 10.1356 4.97838C10.9941 4.01315 12.0319 3.34755 13.253 3.01776C13.6588 2.90666 14.0842 2.85045 14.5009 2.77303ZM7.18461 22.6305H22.8101V22.3077C22.8101 20.5402 22.8134 18.7726 22.8072 17.005C22.8072 16.6702 22.9276 16.443 23.2225 16.3163C23.2815 16.2912 23.3376 16.2585 23.3947 16.2288C25.3999 15.1847 26.5423 12.7746 26.0493 10.4912C25.5802 8.31596 24.2748 6.94453 22.2082 6.40209C21.7703 6.28697 21.3031 6.293 20.7952 6.2377C20.8547 6.38249 20.882 6.44131 20.9032 6.50214C21.1156 7.1054 21.378 7.69309 21.5228 8.31194C21.6427 8.82321 21.6461 9.37017 21.6561 9.90205C21.6609 10.1534 21.4269 10.3304 21.1852 10.3545C20.9434 10.3786 20.7056 10.2359 20.6293 10.0061C20.5897 9.87895 20.5685 9.74625 20.5665 9.61248C20.53 8.31294 20.1118 7.16372 19.355 6.13816C17.9488 4.23385 15.3398 3.45312 13.1825 4.24994C11.0459 5.03921 9.47327 7.16271 9.42243 9.61449C9.42109 9.76451 9.39159 9.91278 9.33562 10.0509C9.22867 10.2987 8.95914 10.4088 8.70831 10.3384C8.44213 10.2635 8.29249 10.0096 8.30112 9.6527C8.32044 8.55168 8.58973 7.47133 9.08671 6.50113C9.11788 6.4408 9.13707 6.37344 9.18263 6.25832C8.80758 6.28446 8.48049 6.29099 8.15724 6.33272C5.69065 6.65195 3.73147 9.0429 3.84082 11.642C3.93003 13.775 4.9041 15.336 6.73042 16.2912C7.05847 16.4626 7.20187 16.6878 7.199 17.0754C7.18461 18.8259 7.18892 20.5769 7.18653 22.3279L7.18461 22.6305ZM7.20139 23.834C7.19429 23.8597 7.189 23.8859 7.18557 23.9124C7.18365 24.566 7.18221 25.2195 7.18125 25.8731C7.18125 26.8669 7.62536 27.334 8.5721 27.334H21.4206C21.4844 27.334 21.5482 27.334 21.6125 27.334C22.3319 27.3018 22.8009 26.8021 22.8077 26.046C22.8139 25.3593 22.8077 24.6726 22.8077 23.9848C22.8077 23.9371 22.7985 23.8893 22.7933 23.834H7.20139ZM8.31503 15.1409C8.40472 15.6566 8.54271 16.1618 8.72701 16.6491C9.05506 17.4801 9.5524 18.2126 10.091 18.9113C10.2982 19.1803 10.6128 19.213 10.8584 19.0224C11.0895 18.8425 11.1461 18.5197 10.984 18.2377C10.9236 18.1301 10.8478 18.0316 10.7783 17.93C10.1457 17 9.51356 16.077 9.37831 14.8946C9.34905 14.6382 9.10542 14.4693 8.85506 14.4693C8.52126 14.4693 8.24453 14.7654 8.31503 15.1409ZM21.6125 14.7739C21.5646 14.6665 21.4837 14.5789 21.3828 14.5252C21.2819 14.4716 21.1667 14.4549 21.0557 14.4778C20.813 14.5211 20.636 14.6648 20.6053 14.9273C20.5463 15.4774 20.3745 16.0076 20.1017 16.4817C19.778 17.0372 19.425 17.5741 19.0768 18.1135C18.8495 18.4654 18.8668 18.8204 19.1377 19.0245C19.4087 19.2286 19.7252 19.1657 19.9641 18.8234C20.2605 18.3986 20.5598 17.9733 20.8231 17.5258C21.2432 16.812 21.5904 16.0624 21.694 15.1359C21.6777 15.059 21.6691 14.9051 21.6125 14.7754V14.7739ZM14.4343 17.4384C14.4415 17.8476 14.4285 18.2598 14.4693 18.6655C14.5038 19.0119 14.8252 19.1964 15.1455 19.1034C15.4213 19.024 15.5551 18.8018 15.5556 18.3966C15.5575 17.3331 15.5575 16.2697 15.5556 15.2063C15.5549 15.106 15.5443 15.0061 15.5239 14.9082C15.476 14.6704 15.3244 14.5296 15.1038 14.4819C14.8832 14.4341 14.6722 14.4979 14.5633 14.7071C14.4862 14.8603 14.444 15.0301 14.44 15.2033C14.4247 15.7387 14.4343 16.2746 14.4343 16.812C14.4338 17.0206 14.4309 17.2302 14.4343 17.4399V17.4384Z" fill="#FF0000"/>
</svg>
