    <svg
            width="160"
            height="160"
            viewBox="0 0 160 160"
            fill="none"
            xmlns="http://www.w3.org/2000/svg"
          >
            <g filter="url(#filter0_d_221_655)">
              <path
                d="M58.124 71.484L58.844 70.692C59.408 70.872 60.14 71.208 60.524 71.496L59.768 72.372C59.432 72.084 58.712 71.7 58.124 71.484ZM52.016 71.928H61.268V73.068H52.016V71.928ZM52.94 73.632H56.48V74.556H52.94V73.632ZM52.976 75.12H54.128V77.328H52.976V75.12ZM59.216 73.368L60.548 73.692C59.852 75.648 58.616 77.256 57.116 78.264C56.912 78 56.408 77.496 56.12 77.256C57.56 76.428 58.676 75.036 59.216 73.368ZM56.396 70.812H57.752C57.836 74.124 59.072 77.088 60.14 77.076C60.404 77.076 60.512 76.668 60.572 75.636C60.86 75.9 61.316 76.152 61.652 76.272C61.46 77.976 61.028 78.372 60.056 78.372C57.956 78.372 56.552 74.808 56.396 70.812ZM52.976 75.12H56.408V77.724H52.976V76.8H55.232V76.044H52.976V75.12ZM53.444 78.732H54.872V80.28C54.872 80.604 54.968 80.652 55.532 80.652C55.784 80.652 56.84 80.652 57.164 80.652C57.62 80.652 57.704 80.52 57.752 79.572C58.04 79.788 58.652 79.992 59.036 80.076C58.868 81.564 58.472 81.924 57.296 81.924C56.972 81.924 55.688 81.924 55.364 81.924C53.804 81.924 53.444 81.528 53.444 80.292V78.732ZM54.56 78.408L55.484 77.64C56.156 78 56.96 78.576 57.344 79.032L56.348 79.896C56 79.44 55.22 78.816 54.56 78.408ZM58.508 79.152L59.708 78.54C60.5 79.26 61.316 80.268 61.64 81.048L60.332 81.72C60.056 80.976 59.288 79.908 58.508 79.152ZM51.836 78.72L53.12 79.176C52.832 80.184 52.364 81.192 51.548 81.84L50.348 81.024C51.08 80.484 51.584 79.62 51.836 78.72ZM51.344 71.928H52.664V73.764C52.664 75.24 52.436 77.364 51.296 78.72C51.092 78.468 50.516 77.988 50.24 77.844C51.248 76.644 51.344 74.964 51.344 73.752V71.928ZM65.864 77.472C66.692 77.352 67.868 77.124 69.068 76.896L69.164 77.928C68.12 78.18 67.052 78.42 66.164 78.612L65.864 77.472ZM69.908 73.524H73.652V74.868H69.908V73.524ZM71.78 70.896H73.076V80.58C73.076 81.276 72.956 81.636 72.572 81.852C72.176 82.08 71.6 82.128 70.772 82.128C70.724 81.768 70.544 81.18 70.376 80.796C70.892 80.82 71.396 80.82 71.564 80.808C71.72 80.808 71.78 80.76 71.78 80.592V70.896ZM70.088 75.804L71.096 75.564C71.42 76.524 71.648 77.772 71.696 78.588L70.616 78.84C70.604 78.036 70.388 76.776 70.088 75.804ZM62.828 74.496H65.756V75.576H62.828V74.496ZM62.876 71.184H65.744V72.276H62.876V71.184ZM62.828 76.128H65.756V77.22H62.828V76.128ZM62.348 72.804H66.032V73.944H62.348V72.804ZM63.344 77.796H65.78V81.42H63.344V80.292H64.652V78.924H63.344V77.796ZM62.78 77.796H63.872V81.924H62.78V77.796ZM66.98 73.62H69.188V74.664H66.98V73.62ZM66.98 75.3H69.188V76.344H66.98V75.3ZM68.54 71.952H69.704V80.724C69.704 81.3 69.584 81.648 69.224 81.852C68.864 82.056 68.36 82.092 67.616 82.092C67.556 81.756 67.376 81.228 67.196 80.904C67.688 80.928 68.18 80.928 68.336 80.928C68.492 80.928 68.54 80.868 68.54 80.712V71.952ZM69.224 76.128L70.436 76.524C69.512 78.372 67.988 80.052 66.428 81.096C66.26 80.832 65.828 80.28 65.576 80.028C67.064 79.164 68.456 77.724 69.224 76.128ZM66.428 71.952H69.044V72.996H67.556V77.952H66.428V71.952ZM67.616 70.788L69.02 71.004C68.78 71.616 68.54 72.228 68.348 72.648L67.232 72.42C67.388 71.952 67.556 71.268 67.616 70.788ZM79.832 71.376C79.736 71.82 79.58 72.528 79.244 73.392C78.992 73.98 78.644 74.664 78.308 75.144C78.632 75 79.268 74.916 79.676 74.916C80.672 74.916 81.428 75.504 81.428 76.62C81.428 77.268 81.464 78.576 81.476 79.332H80.036C80.084 78.768 80.108 77.748 80.096 77.1C80.096 76.332 79.616 76.08 79.112 76.08C78.452 76.08 77.696 76.476 77.24 76.908C76.88 77.268 76.544 77.7 76.136 78.228L74.852 77.268C76.388 75.852 77.312 74.556 77.816 73.236C78.056 72.588 78.212 71.856 78.248 71.244L79.832 71.376ZM75.308 72.492C75.92 72.576 76.808 72.624 77.42 72.624C79.004 72.624 81.176 72.54 82.916 72.228L82.904 73.62C81.212 73.86 78.8 73.968 77.336 73.968C76.844 73.968 75.968 73.944 75.308 73.884V72.492ZM84.812 75.9C84.44 76.008 83.792 76.248 83.384 76.404C82.604 76.704 81.524 77.136 80.396 77.712C79.304 78.276 78.716 78.792 78.716 79.452C78.716 80.112 79.292 80.292 80.456 80.292C81.476 80.292 82.82 80.16 83.876 79.944L83.828 81.492C83.024 81.6 81.56 81.708 80.42 81.708C78.548 81.708 77.144 81.24 77.144 79.692C77.144 78.024 78.86 77.04 80.3 76.32C81.404 75.744 82.16 75.456 82.88 75.12C83.348 74.916 83.768 74.724 84.224 74.496L84.812 75.9ZM86.6 71.52H92.912V72.852H86.6V71.52ZM86.384 75.444H93.056V76.776H86.384V75.444ZM90.488 71.88H91.904V82.068H90.488V71.88ZM87.764 71.868H89.108V75.912C89.108 78.156 88.916 80.472 87.296 82.176C87.068 81.876 86.564 81.396 86.228 81.192C87.608 79.728 87.764 77.796 87.764 75.9V71.868ZM95.864 70.98L97.232 71.532C96.32 72.72 95.024 73.788 93.776 74.508C93.548 74.184 93.128 73.764 92.756 73.488C93.872 72.936 95.192 71.952 95.864 70.98ZM96.116 74.292L97.424 74.832C96.512 76.068 95.168 77.208 93.932 77.964C93.704 77.664 93.284 77.232 92.924 76.956C94.052 76.356 95.408 75.324 96.116 74.292ZM96.32 77.484L97.688 78.012C96.668 79.764 95.084 81.144 93.308 82.056C93.092 81.696 92.672 81.192 92.3 80.892C93.92 80.184 95.492 78.96 96.32 77.484ZM103.364 72.612C104.84 72.816 107.24 72.756 108.524 72.6V74.148C107.06 74.292 104.876 74.292 103.376 74.148L103.364 72.612ZM104.324 77.736C104.228 78.144 104.18 78.432 104.18 78.744C104.18 79.284 104.648 79.608 105.872 79.608C106.94 79.608 107.828 79.512 108.872 79.284L108.908 80.904C108.128 81.06 107.156 81.144 105.8 81.144C103.736 81.144 102.74 80.4 102.74 79.176C102.74 78.696 102.812 78.228 102.956 77.616L104.324 77.736ZM101.516 71.808C101.432 72.06 101.276 72.672 101.228 72.888C101.06 73.68 100.64 76.08 100.64 77.28C100.64 77.52 100.652 77.82 100.688 78.06C100.868 77.652 101.06 77.244 101.24 76.836L101.984 77.424C101.636 78.432 101.24 79.728 101.12 80.364C101.084 80.544 101.048 80.808 101.048 80.928C101.06 81.06 101.06 81.264 101.072 81.432L99.692 81.516C99.452 80.7 99.224 79.236 99.224 77.604C99.224 75.792 99.584 73.776 99.716 72.84C99.764 72.516 99.824 72.06 99.836 71.676L101.516 71.808Z"
                fill="black"
              />
              <path
                d="M45.968 79.472C45.664 79.504 45.336 79.584 44.984 79.712C44.64 79.832 44.296 79.928 43.952 80C43.608 80.072 43.22 80.088 42.788 80.048C42.172 80 41.604 79.848 41.084 79.592C40.564 79.328 40.128 79 39.776 78.608C39.432 78.216 39.144 77.768 38.912 77.264C38.68 76.752 38.52 76.224 38.432 75.68C38.344 75.128 38.316 74.572 38.348 74.012C38.388 73.444 38.488 72.908 38.648 72.404C38.808 71.9 39.036 71.432 39.332 71C39.628 70.568 39.976 70.216 40.376 69.944C41.16 69.36 42.188 69.068 43.46 69.068C45.124 69.076 46.4 69.532 47.288 70.436C47.72 70.876 47.844 71.252 47.66 71.564C47.54 71.764 47.356 71.848 47.108 71.816C46.908 71.792 46.76 71.68 46.664 71.48C46.184 70.416 45.588 69.816 44.876 69.68C44.468 69.6 44.096 69.64 43.76 69.8C43.432 69.952 43.168 70.192 42.968 70.52C42.776 70.848 42.612 71.24 42.476 71.696C42.348 72.144 42.28 72.624 42.272 73.136C42.264 73.64 42.288 74.148 42.344 74.66C42.448 75.46 42.652 76.176 42.956 76.808C43.26 77.432 43.64 77.86 44.096 78.092C44.096 77.74 44.096 77.152 44.096 76.328C44.096 75.8 44.004 75.444 43.82 75.26C43.636 75.076 43.364 74.984 43.004 74.984C42.924 74.984 42.852 74.956 42.788 74.9C42.732 74.836 42.704 74.764 42.704 74.684C42.704 74.596 42.732 74.524 42.788 74.468C42.852 74.412 42.924 74.384 43.004 74.384H49.16C49.248 74.384 49.32 74.412 49.376 74.468C49.432 74.524 49.46 74.596 49.46 74.684C49.46 74.764 49.432 74.836 49.376 74.9C49.32 74.956 49.248 74.984 49.16 74.984C48.432 74.984 48.068 75.404 48.068 76.244V80C48.068 80.128 48.012 80.22 47.9 80.276C47.796 80.332 47.68 80.332 47.552 80.276C47.432 80.228 47.356 80.136 47.324 80C47.26 79.776 47.1 79.624 46.844 79.544C46.588 79.464 46.296 79.44 45.968 79.472ZM58.1009 69.848C58.7329 69.632 59.1729 69.668 59.4209 69.956C59.5889 70.148 59.6049 70.344 59.4689 70.544C59.3409 70.712 59.1569 70.804 58.9169 70.82C58.3009 70.86 57.7369 71.004 57.2249 71.252C56.7209 71.5 56.3049 71.82 55.9769 72.212C55.6569 72.596 55.4089 73.024 55.2329 73.496C55.0649 73.968 54.9809 74.456 54.9809 74.96V78.14C54.9809 78.98 55.3449 79.4 56.0729 79.4C56.1529 79.4 56.2209 79.432 56.2769 79.496C56.3409 79.552 56.3729 79.62 56.3729 79.7C56.3729 79.78 56.3409 79.852 56.2769 79.916C56.2209 79.972 56.1529 80 56.0729 80H49.9169C49.8289 80 49.7529 79.972 49.6889 79.916C49.6329 79.852 49.6049 79.78 49.6049 79.7C49.6049 79.62 49.6329 79.552 49.6889 79.496C49.7529 79.432 49.8289 79.4 49.9169 79.4C50.2689 79.4 50.5369 79.308 50.7209 79.124C50.9049 78.94 50.9969 78.584 50.9969 78.056V73.58C50.9969 73.052 50.9049 72.696 50.7209 72.512C50.5369 72.328 50.2689 72.236 49.9169 72.236C49.8609 72.236 49.8089 72.224 49.7609 72.2C49.7129 72.168 49.6729 72.128 49.6409 72.08C49.6169 72.032 49.6049 71.984 49.6049 71.936C49.6049 71.848 49.6329 71.776 49.6889 71.72C49.7529 71.656 49.8289 71.624 49.9169 71.624H49.9289C51.7049 71.624 52.9569 71.796 53.6849 72.14C54.2209 72.396 54.5849 72.772 54.7769 73.268C55.1369 72.46 55.6009 71.752 56.1689 71.144C56.7369 70.536 57.3809 70.104 58.1009 69.848ZM67.0885 77.012C67.0885 76.876 67.1285 76.784 67.2085 76.736C67.2885 76.68 67.3645 76.68 67.4365 76.736C67.5165 76.792 67.5565 76.88 67.5565 77C67.5565 78.016 67.3325 78.78 66.8845 79.292C66.4445 79.804 65.6925 80.06 64.6285 80.06C63.3965 80.06 62.5885 79.576 62.2045 78.608C61.8285 79.576 60.9365 80.06 59.5285 80.06C59.0885 80.06 58.6885 79.984 58.3285 79.832C57.9765 79.68 57.6885 79.48 57.4645 79.232C57.2485 78.976 57.0765 78.688 56.9485 78.368C56.8285 78.04 56.7645 77.704 56.7565 77.36C56.7565 77.008 56.8085 76.664 56.9125 76.328C57.0245 75.984 57.1845 75.672 57.3925 75.392C57.6005 75.112 57.8725 74.872 58.2085 74.672C58.5445 74.472 58.9205 74.344 59.3365 74.288C59.4725 74.264 59.6605 74.24 59.9005 74.216C60.1485 74.184 60.3445 74.16 60.4885 74.144C60.6405 74.12 60.8165 74.092 61.0165 74.06C61.2245 74.02 61.3925 73.972 61.5205 73.916C61.6485 73.86 61.7765 73.792 61.9045 73.712C62.0405 73.632 62.1445 73.532 62.2165 73.412C62.2885 73.292 62.3365 73.152 62.3605 72.992C62.4085 72.696 62.3245 72.452 62.1085 72.26C61.8925 72.068 61.5485 71.992 61.0765 72.032C60.0125 72.12 59.0845 72.756 58.2925 73.94C58.1325 74.18 57.9245 74.26 57.6685 74.18C57.4445 74.1 57.3245 73.944 57.3085 73.712C57.3085 73.44 57.4645 73.164 57.7765 72.884C58.1445 72.572 58.5685 72.316 59.0485 72.116C59.5365 71.908 60.0325 71.768 60.5365 71.696C61.0405 71.624 61.5485 71.604 62.0605 71.636C62.5725 71.66 63.0525 71.74 63.5005 71.876C63.9165 71.996 64.2685 72.152 64.5565 72.344C64.8525 72.536 65.0885 72.74 65.2645 72.956C65.4405 73.172 65.5765 73.432 65.6725 73.736C65.7765 74.032 65.8445 74.324 65.8765 74.612C65.9085 74.9 65.9245 75.24 65.9245 75.632V77C65.9245 77.136 65.9245 77.24 65.9245 77.312C65.9245 77.384 65.9285 77.488 65.9365 77.624C65.9525 77.76 65.9725 77.868 65.9965 77.948C66.0205 78.028 66.0525 78.112 66.0925 78.2C66.1325 78.288 66.1845 78.356 66.2485 78.404C66.3205 78.444 66.4045 78.464 66.5005 78.464C66.6925 78.464 66.8365 78.336 66.9325 78.08C67.0365 77.816 67.0885 77.46 67.0885 77.012ZM61.4005 78.464C61.8405 78.464 62.0605 77.872 62.0605 76.688C62.0525 76.04 61.9965 75.548 61.8925 75.212C61.7885 74.868 61.6405 74.696 61.4485 74.696C61.2725 74.696 61.1245 74.828 61.0045 75.092C60.8845 75.348 60.8125 75.66 60.7885 76.028C60.7645 76.396 60.7645 76.764 60.7885 77.132C60.8205 77.5 60.8885 77.816 60.9925 78.08C61.1045 78.336 61.2405 78.464 61.4005 78.464ZM72.1458 77.132C72.1458 77.268 72.1458 77.372 72.1458 77.444C72.1538 77.508 72.1618 77.608 72.1698 77.744C72.1778 77.872 72.1938 77.976 72.2178 78.056C72.2418 78.128 72.2738 78.208 72.3138 78.296C72.3538 78.384 72.4098 78.448 72.4818 78.488C72.5538 78.528 72.6338 78.548 72.7218 78.548C72.9218 78.548 73.0698 78.424 73.1658 78.176C73.2698 77.92 73.3218 77.58 73.3218 77.156C73.3218 77.02 73.3578 76.928 73.4298 76.88C73.5098 76.832 73.5898 76.836 73.6698 76.892C73.7498 76.94 73.7898 77.02 73.7898 77.132C73.7898 78.116 73.5658 78.856 73.1178 79.352C72.6698 79.848 71.9178 80.096 70.8618 80.096C69.0698 80.096 68.1738 79.108 68.1738 77.132V73.58C68.1738 73.052 68.0818 72.696 67.8978 72.512C67.7138 72.328 67.4418 72.236 67.0818 72.236C67.0018 72.236 66.9298 72.208 66.8658 72.152C66.8098 72.088 66.7818 72.016 66.7818 71.936C66.7818 71.848 66.8098 71.776 66.8658 71.72C66.9298 71.656 67.0018 71.624 67.0818 71.624H67.1058C68.4578 71.624 69.5058 71.444 70.2498 71.084C71.0018 70.716 71.4658 70.208 71.6418 69.56C71.6738 69.432 71.7298 69.348 71.8098 69.308C71.8978 69.268 71.9738 69.276 72.0378 69.332C72.1098 69.38 72.1458 69.456 72.1458 69.56V71.864C72.2578 71.848 72.3578 71.828 72.4458 71.804C72.7338 71.748 72.9858 71.66 73.2018 71.54C73.4258 71.412 73.5978 71.288 73.7178 71.168C73.8378 71.04 74.0218 70.836 74.2698 70.556C74.5258 70.276 74.7658 70.028 74.9898 69.812C75.4298 69.396 75.9938 69.2 76.6818 69.224C77.0978 69.248 77.4418 69.364 77.7138 69.572C77.9858 69.78 78.1458 70.036 78.1938 70.34C78.2498 70.636 78.2338 70.94 78.1458 71.252C78.0578 71.556 77.8578 71.84 77.5458 72.104C77.2418 72.36 76.8658 72.536 76.4178 72.632C75.6898 72.784 74.2658 72.792 72.1458 72.656V77.132ZM79.2738 80C79.0098 80 78.6098 80 78.0738 80C77.5458 80 77.1498 80 76.8858 80C75.7098 80 74.9218 79.58 74.5218 78.74C74.3538 78.404 74.2498 77.712 74.2098 76.664C74.1778 75.616 74.2218 74.908 74.3418 74.54C74.4698 74.14 74.7018 73.82 75.0378 73.58C75.3818 73.332 75.8938 73.144 76.5738 73.016C77.2538 72.88 78.1338 72.812 79.2138 72.812H79.2378C79.3178 72.812 79.3858 72.844 79.4418 72.908C79.5058 72.964 79.5378 73.036 79.5378 73.124C79.5378 73.204 79.5058 73.276 79.4418 73.34C79.3858 73.396 79.3178 73.424 79.2378 73.424C78.8858 73.424 78.6218 73.516 78.4458 73.7C78.2698 73.876 78.1818 74.232 78.1818 74.768V78.056C78.1818 78.584 78.2738 78.94 78.4578 79.124C78.6418 79.308 78.9138 79.4 79.2738 79.4C79.3538 79.4 79.4218 79.428 79.4778 79.484C79.5418 79.54 79.5738 79.612 79.5738 79.7C79.5738 79.78 79.5418 79.852 79.4778 79.916C79.4218 79.972 79.3538 80 79.2738 80ZM86.2828 77.156C86.2828 77.02 86.3188 76.928 86.3908 76.88C86.4708 76.832 86.5508 76.836 86.6308 76.892C86.7108 76.94 86.7508 77.02 86.7508 77.132C86.7508 78.116 86.5268 78.856 86.0788 79.352C85.6308 79.848 84.8788 80.096 83.8228 80.096C82.0308 80.096 81.1348 79.108 81.1348 77.132V73.58C81.1348 73.052 81.0428 72.696 80.8588 72.512C80.6748 72.328 80.4028 72.236 80.0428 72.236C79.9628 72.236 79.8908 72.208 79.8268 72.152C79.7708 72.088 79.7428 72.016 79.7428 71.936C79.7428 71.848 79.7708 71.776 79.8268 71.72C79.8908 71.656 79.9628 71.624 80.0428 71.624H80.0668C80.9788 71.624 81.7588 71.536 82.4068 71.36C83.0628 71.184 83.5628 70.948 83.9068 70.652C84.2588 70.348 84.4908 69.984 84.6028 69.56C84.6348 69.432 84.6908 69.348 84.7708 69.308C84.8588 69.268 84.9348 69.276 84.9988 69.332C85.0708 69.38 85.1068 69.456 85.1068 69.56V71.588C85.4428 71.612 85.8028 71.624 86.1868 71.624H86.1988C86.2548 71.624 86.3068 71.64 86.3548 71.672C86.4028 71.696 86.4388 71.732 86.4628 71.78C86.4868 71.828 86.4987 71.88 86.4987 71.936C86.4987 72.016 86.4708 72.088 86.4148 72.152C86.3588 72.208 86.2868 72.236 86.1988 72.236C85.8468 72.236 85.5748 72.328 85.3828 72.512C85.1988 72.696 85.1068 73.052 85.1068 73.58V77.132C85.1068 77.236 85.1068 77.312 85.1068 77.36C85.1148 77.408 85.1188 77.484 85.1188 77.588C85.1268 77.692 85.1348 77.772 85.1428 77.828C85.1508 77.884 85.1628 77.956 85.1788 78.044C85.1948 78.132 85.2148 78.2 85.2388 78.248C85.2708 78.296 85.3068 78.348 85.3468 78.404C85.3868 78.452 85.4348 78.488 85.4908 78.512C85.5468 78.536 85.6108 78.548 85.6828 78.548C85.8828 78.548 86.0308 78.424 86.1268 78.176C86.2308 77.92 86.2828 77.58 86.2828 77.156ZM99.2835 79.376C99.3715 79.376 99.4435 79.408 99.4995 79.472C99.5635 79.528 99.5955 79.6 99.5955 79.688C99.5955 79.768 99.5635 79.84 99.4995 79.904C99.4435 79.96 99.3715 79.988 99.2835 79.988H99.2715C97.7755 79.988 96.6875 79.888 96.0075 79.688C95.3355 79.488 94.8595 79.132 94.5795 78.62C94.3395 79.204 93.9675 79.596 93.4635 79.796C92.9675 79.996 92.3075 80.064 91.4835 80C90.8915 79.952 90.3875 79.828 89.9715 79.628C89.5635 79.428 89.2435 79.152 89.0115 78.8C88.7875 78.448 88.6275 78.06 88.5315 77.636C88.4355 77.204 88.3875 76.704 88.3875 76.136V73.58C88.3875 73.052 88.2955 72.696 88.1115 72.512C87.9275 72.328 87.6555 72.236 87.2955 72.236C87.2155 72.236 87.1435 72.208 87.0795 72.152C87.0235 72.088 86.9955 72.016 86.9955 71.936C86.9955 71.848 87.0235 71.776 87.0795 71.72C87.1435 71.656 87.2155 71.624 87.2955 71.624H87.3195C87.9755 71.624 88.5515 71.648 89.0475 71.696C89.5515 71.744 89.9875 71.812 90.3555 71.9C90.7235 71.98 91.0315 72.096 91.2795 72.248C91.5355 72.4 91.7395 72.56 91.8915 72.728C92.0515 72.896 92.1715 73.108 92.2515 73.364C92.3395 73.62 92.3955 73.876 92.4195 74.132C92.4515 74.38 92.4675 74.684 92.4675 75.044C92.4675 75.18 92.4675 75.56 92.4675 76.184C92.4755 76.8 92.4795 77.176 92.4795 77.312C92.4635 77.52 92.4595 77.74 92.4675 77.972C92.4835 78.196 92.5075 78.404 92.5395 78.596C92.5795 78.78 92.6595 78.936 92.7795 79.064C92.9075 79.184 93.0715 79.244 93.2715 79.244C93.5355 79.244 93.7595 79.108 93.9435 78.836C94.1275 78.564 94.2195 78.244 94.2195 77.876V71.612H99.2835C99.3715 71.612 99.4435 71.644 99.4995 71.708C99.5635 71.764 99.5955 71.836 99.5955 71.924C99.5955 72.004 99.5635 72.072 99.4995 72.128C99.4435 72.184 99.3715 72.212 99.2835 72.212C98.5635 72.212 98.2035 72.632 98.2035 73.472V78.032C98.2035 78.56 98.2955 78.916 98.4795 79.1C98.6635 79.284 98.9315 79.376 99.2835 79.376ZM110.86 79.4C110.916 79.4 110.968 79.412 111.016 79.436C111.064 79.46 111.1 79.496 111.124 79.544C111.148 79.592 111.16 79.644 111.16 79.7C111.16 79.78 111.132 79.852 111.076 79.916C111.02 79.972 110.948 80 110.86 80H105.796V79.532C105.468 79.828 105.02 79.984 104.452 80C102.932 80.04 101.752 79.544 100.912 78.512C100.232 77.672 99.9115 76.68 99.9515 75.536C99.9835 74.4 100.356 73.464 101.068 72.728C101.964 71.808 103.168 71.456 104.68 71.672C105.152 71.736 105.524 72.028 105.796 72.548V69.56C105.796 69.456 105.832 69.38 105.904 69.332C105.976 69.276 106.052 69.268 106.132 69.308C106.22 69.348 106.28 69.432 106.312 69.56C106.48 70.208 106.936 70.716 107.68 71.084C108.432 71.444 109.488 71.624 110.848 71.624H110.86C110.948 71.624 111.02 71.656 111.076 71.72C111.132 71.776 111.16 71.848 111.16 71.936C111.16 72.016 111.132 72.088 111.076 72.152C111.02 72.208 110.948 72.236 110.86 72.236C110.508 72.236 110.236 72.328 110.044 72.512C109.86 72.696 109.768 73.052 109.768 73.58V78.056C109.768 78.584 109.86 78.94 110.044 79.124C110.236 79.308 110.508 79.4 110.86 79.4ZM105.796 78.2V74.024C105.796 73.64 105.708 73.272 105.532 72.92C105.364 72.568 105.156 72.4 104.908 72.416C104.676 72.432 104.484 72.692 104.332 73.196C104.18 73.692 104.092 74.292 104.068 74.996C104.052 75.692 104.072 76.388 104.128 77.084C104.184 77.772 104.308 78.352 104.5 78.824C104.692 79.288 104.916 79.504 105.172 79.472C105.332 79.448 105.476 79.328 105.604 79.112C105.732 78.896 105.796 78.592 105.796 78.2ZM120.757 77.264C120.973 77.032 121.141 76.976 121.261 77.096C121.357 77.184 121.365 77.304 121.285 77.456C120.981 78.104 120.569 78.64 120.049 79.064C119.529 79.48 118.965 79.768 118.357 79.928C117.749 80.08 117.113 80.128 116.449 80.072C115.897 80.024 115.369 79.9 114.865 79.7H114.853C114.005 79.356 113.321 78.84 112.801 78.152C112.289 77.456 112.033 76.688 112.033 75.848C112.033 75.08 112.249 74.372 112.681 73.724C113.113 73.068 113.701 72.552 114.445 72.176C115.197 71.8 116.013 71.612 116.893 71.612C117.549 71.612 118.173 71.712 118.765 71.912C119.357 72.112 119.853 72.384 120.253 72.728C120.653 73.072 120.937 73.476 121.105 73.94C121.281 74.404 121.273 74.896 121.081 75.416C120.873 76 120.417 76.468 119.713 76.82C119.017 77.164 118.241 77.292 117.385 77.204C117.217 77.188 117.101 77.136 117.037 77.048C116.981 76.96 116.993 76.84 117.073 76.688C117.313 76.288 117.485 75.74 117.589 75.044C117.701 74.348 117.697 73.716 117.577 73.148C117.465 72.58 117.237 72.296 116.893 72.296C116.717 72.296 116.553 72.416 116.401 72.656C116.257 72.888 116.145 73.196 116.065 73.58C115.993 73.964 115.949 74.376 115.933 74.816C115.925 75.256 115.969 75.708 116.065 76.172C116.169 76.628 116.317 77.024 116.509 77.36C116.789 77.84 117.197 78.148 117.733 78.284C118.269 78.412 118.809 78.38 119.353 78.188C119.905 77.988 120.373 77.68 120.757 77.264Z"
                fill="black"
              />
              <path
                d="M114.63 21H45.3704C34.1201 21 25 30.1201 25 41.3704V110.63C25 121.88 34.1201 131 45.3704 131H114.63C125.88 131 135 121.88 135 110.63V41.3704C135 30.1201 125.88 21 114.63 21Z"
                fill="white"
              />
              <g clip-path="url(#clip0_221_655)">
                <path
                  fill-rule="evenodd"
                  clip-rule="evenodd"
                  d="M-402 30L-378.933 40.3571C-355.867 50.7143 -309.733 71.4286 -263.6 74.881C-217.467 78.3333 -171.333 64.5238 -125.2 67.9762C-79.0667 71.4286 -32.9333 92.1429 13.2 109.405C59.3333 126.667 105.467 140.476 151.6 126.667C197.733 112.857 243.867 71.4286 266.933 50.7143L290 30V175H266.933C243.867 175 197.733 175 151.6 175C105.467 175 59.3333 175 13.2 175C-32.9333 175 -79.0667 175 -125.2 175C-171.333 175 -217.467 175 -263.6 175C-309.733 175 -355.867 175 -378.933 175H-402V30Z"
                  fill="#CF0000"
                />
                <path
                  fill-rule="evenodd"
                  clip-rule="evenodd"
                  d="M-198 81L-156.25 96C-114.5 111 -31 141 52.5 141C136 141 219.5 111 303 96C386.5 81 470 81 553.5 101C637 121 720.5 161 762.25 181L804 201V261H762.25C720.5 261 637 261 553.5 261C470 261 386.5 261 303 261C219.5 261 136 261 52.5 261C-31 261 -114.5 261 -156.25 261H-198V81Z"
                  fill="#FF0000"
                />
              </g>
              <path
                d="M51.0099 66.3831V70.3075H46.8177V82.1712H41.8667V70.3075H37.7182V66.3831H51.0099Z"
                fill="#FF0000"
              />
              <path
                d="M58.1905 69.5935V82.1712H53.2394V69.5935H58.1905Z"
                fill="#FF0000"
              />
              <path
                d="M67.6128 69.9398C68.1994 69.6044 68.9019 69.437 69.7201 69.4377C70.661 69.4263 71.5843 69.6939 72.3733 70.2067C73.1617 70.72 73.7823 71.4635 74.2352 72.4372C74.6881 73.4109 74.9149 74.5595 74.9156 75.8829C74.9156 77.2063 74.6888 78.3548 74.2352 79.3285C73.7816 80.3022 73.161 81.0454 72.3733 81.5581C71.5845 82.0713 70.6611 82.3389 69.7201 82.327C68.9053 82.327 68.2028 82.16 67.6128 81.8259C67.0407 81.5074 66.5723 81.0312 66.2632 80.454V88.1947H61.3122V69.5935H66.2632V71.3148C66.5717 70.7364 67.0402 70.259 67.6128 69.9398ZM69.385 74.3194C69.2141 74.1434 69.0096 74.0035 68.7837 73.9079C68.5577 73.8124 68.3149 73.7631 68.0696 73.7631C67.8243 73.7631 67.5814 73.8124 67.3555 73.9079C67.1295 74.0035 66.925 74.1434 66.7542 74.3194C66.4147 74.6909 66.2449 75.2113 66.2449 75.8808C66.2449 76.5503 66.4147 77.0705 66.7542 77.4412C66.925 77.6172 67.1295 77.7572 67.3555 77.8527C67.5814 77.9483 67.8243 77.9975 68.0696 77.9975C68.3149 77.9975 68.5577 77.9483 68.7837 77.8527C69.0096 77.7572 69.2141 77.6172 69.385 77.4412C69.7245 77.0705 69.8943 76.5503 69.8943 75.8808C69.8943 75.2113 69.7245 74.6915 69.385 74.3215V74.3194Z"
                fill="#FF0000"
              />
              <path
                d="M83.6667 69.9398C84.2533 69.6044 84.9558 69.437 85.774 69.4377C86.7132 69.4273 87.6345 69.6949 88.4221 70.2067C89.2105 70.72 89.8314 71.4635 90.285 72.4372C90.7386 73.4109 90.965 74.5595 90.9644 75.8829C90.9644 77.2063 90.7379 78.3548 90.285 79.3285C89.8321 80.3022 89.2111 81.0454 88.4221 81.5581C87.6347 82.0703 86.7133 82.3379 85.774 82.327C84.9592 82.327 84.2567 82.16 83.6667 81.8259C83.0949 81.5071 82.6265 81.031 82.3171 80.454V82.1712H77.3681V65.6712H82.3192V71.3148C82.6274 70.7369 83.0951 70.2596 83.6667 69.9398ZM85.4389 74.3194C85.268 74.1434 85.0635 74.0035 84.8376 73.9079C84.6116 73.8124 84.3688 73.7631 84.1235 73.7631C83.8781 73.7631 83.6353 73.8124 83.4094 73.9079C83.1834 74.0035 82.9789 74.1434 82.8081 74.3194C82.4686 74.6909 82.2988 75.2113 82.2988 75.8808C82.2988 76.5503 82.4686 77.0705 82.8081 77.4412C82.9789 77.6172 83.1834 77.7572 83.4094 77.8527C83.6353 77.9483 83.8781 77.9975 84.1235 77.9975C84.3688 77.9975 84.6116 77.9483 84.8376 77.8527C85.0635 77.7572 85.268 77.6172 85.4389 77.4412C85.7784 77.0705 85.9482 76.5503 85.9482 75.8808C85.9482 75.2113 85.7791 74.6915 85.4409 74.3215L85.4389 74.3194Z"
                fill="#FF0000"
              />
              <path
                d="M116.751 82.1712L114.63 79.3397L113.046 82.1712H107.608L111.823 75.5508L107.385 69.5935H112.915L115.034 72.4454L116.639 69.5935H122.081L117.732 76.0611L122.282 82.1722L116.751 82.1712Z"
                fill="#FF0000"
              />
              <path
                d="M92.9708 70.3584V81.4267C92.9708 81.5462 92.9944 81.6646 93.0401 81.7751C93.0859 81.8856 93.153 81.986 93.2375 82.0705C93.3221 82.1551 93.4225 82.2222 93.5329 82.2679C93.6434 82.3137 93.7618 82.3372 93.8814 82.3372H104.954C105.195 82.3372 105.427 82.2413 105.598 82.0705C105.768 81.8998 105.864 81.6682 105.864 81.4267V70.3584C105.864 70.1169 105.768 69.8853 105.598 69.7146C105.427 69.5438 105.195 69.4479 104.954 69.4479H93.8814C93.6404 69.4495 93.4097 69.5459 93.2393 69.7163C93.0689 69.8868 92.9724 70.1174 92.9708 70.3584ZM100.574 77.5094C100.432 77.6806 100.254 77.8183 100.052 77.9129C99.8511 78.0074 99.6314 78.0564 99.4089 78.0564C99.1864 78.0564 98.9667 78.0074 98.7653 77.9129C98.5639 77.8183 98.3858 77.6806 98.2437 77.5094C97.9388 77.1448 97.7864 76.606 97.7864 75.8931C97.7864 75.1801 97.9426 74.6413 98.2549 74.2767C98.3958 74.1056 98.5729 73.9678 98.7734 73.8732C98.9739 73.7786 99.1928 73.7295 99.4145 73.7295C99.6362 73.7295 99.8551 73.7786 100.056 73.8732C100.256 73.9678 100.433 74.1056 100.574 74.2767C100.887 74.6399 101.043 75.1787 101.043 75.8931C101.042 76.6074 100.886 77.1462 100.574 77.5094Z"
                fill="#FF0000"
              />
              <path
                d="M55.7155 68.7583C57.0824 68.7583 58.1905 67.6502 58.1905 66.2833C58.1905 64.9164 57.0824 63.8083 55.7155 63.8083C54.3486 63.8083 53.2405 64.9164 53.2405 66.2833C53.2405 67.6502 54.3486 68.7583 55.7155 68.7583Z"
                fill="#FF0000"
              />
            </g>
            <defs>
              <filter
                id="filter0_d_221_655"
                x="0"
                y="0"
                width="160"
                height="160"
                filterUnits="userSpaceOnUse"
                color-interpolation-filters="sRGB"
              >
                <feFlood flood-opacity="0" result="BackgroundImageFix" />
                <feColorMatrix
                  in="SourceAlpha"
                  type="matrix"
                  values="0 0 0 0 0 0 0 0 0 0 0 0 0 0 0 0 0 0 127 0"
                  result="hardAlpha"
                />
                <feOffset dy="4" />
                <feGaussianBlur stdDeviation="12.5" />
                <feComposite in2="hardAlpha" operator="out" />
                <feColorMatrix
                  type="matrix"
                  values="0 0 0 0 0 0 0 0 0 0 0 0 0 0 0 0 0 0 0.05 0"
                />
                <feBlend
                  mode="normal"
                  in2="BackgroundImageFix"
                  result="effect1_dropShadow_221_655"
                />
                <feBlend
                  mode="normal"
                  in="SourceGraphic"
                  in2="effect1_dropShadow_221_655"
                  result="shape"
                />
              </filter>
              <clipPath id="clip0_221_655">
                <rect
                  x="25"
                  y="21"
                  width="110"
                  height="110"
                  rx="20"
                  fill="white"
                />
              </clipPath>
            </defs>
          </svg>