<svg width="27" height="30" viewBox="0 0 27 30" fill="none" xmlns="http://www.w3.org/2000/svg">
<path d="M10.0028 5.37297C10.3209 5.43996 10.6391 5.50746 10.9476 5.60489C11.7127 5.84645 12.384 6.26462 12.9772 6.80711C13.0381 6.86293 13.1041 6.91368 13.1766 6.97458C13.2837 6.87765 13.3796 6.78326 13.4811 6.70054C13.7982 6.4468 14.1721 6.35698 14.5684 6.35698C18.805 6.35495 23.0415 6.35495 27.278 6.35698C27.755 6.35698 27.9595 6.56352 27.9595 7.03345C27.9595 12.703 27.9595 18.3726 27.9595 24.0421C27.9595 24.5298 27.7509 24.7272 27.2577 24.7196C26.556 24.7089 25.8806 24.5674 25.2606 24.2375C24.4751 23.8209 23.6597 23.5839 22.7611 23.6574C22.2723 23.69 21.7951 23.8203 21.3576 24.0406C20.6005 24.4324 19.815 24.7145 18.9484 24.7196C18.441 24.7221 18.238 24.5318 18.238 24.0264C18.238 21.8493 18.238 19.6726 18.238 17.4961V17.1774C18.1289 17.1724 18.0391 17.1648 17.9498 17.1648C16.8609 17.1648 15.772 17.1541 14.6836 17.1678C13.9464 17.1769 13.3679 16.9232 12.9944 16.2356C12.8534 16.3208 12.7204 16.403 12.5885 16.4827C11.7924 16.9567 10.9257 17.1643 10.0043 17.1643C8.51927 17.1643 7.03391 17.1643 5.54822 17.1643C4.29796 17.1643 3.58657 16.2711 3.85905 15.0531C3.8646 15.0216 3.86849 14.9897 3.87072 14.9577C2.76203 14.4812 2.55145 13.519 2.88787 12.6548C2.69507 12.5538 2.52633 12.4124 2.39314 12.2402C2.17531 11.9596 2.05289 11.6168 2.04376 11.2617C2.03463 10.9066 2.13928 10.558 2.3424 10.2666C2.48506 10.0627 2.67252 9.89409 2.89041 9.77383C2.43374 8.67108 3.08525 7.67947 3.96104 7.49373C4.25036 7.4341 4.54719 7.41989 4.84089 7.45161C5.30263 7.50236 5.62636 7.34605 5.93436 6.99792C6.31205 6.5789 6.72508 6.19315 7.16888 5.84493C7.40142 5.66758 7.66532 5.5357 7.94674 5.4562C8.61379 5.25364 9.32153 5.22499 10.0028 5.37297ZM19.33 7.45821V23.6016C19.377 23.6031 19.4241 23.5986 19.47 23.5884C19.9729 23.4017 20.4848 23.2332 20.975 23.0195C22.3912 22.4024 23.8008 22.3948 25.2124 23.0195C25.4818 23.1388 25.7401 23.2865 26.0156 23.389C26.2911 23.4915 26.5737 23.5488 26.8685 23.6316V7.45821H19.33ZM7.02123 7.44298C7.20237 7.44298 7.3348 7.44298 7.46724 7.44298C7.60267 7.43935 7.7382 7.44342 7.87317 7.45516C7.96367 7.46391 8.05033 7.4961 8.12461 7.54855C8.19888 7.60101 8.25821 7.67192 8.29672 7.7543C8.33524 7.83668 8.35163 7.92767 8.34427 8.01831C8.3369 8.10895 8.30605 8.19611 8.25474 8.27119C8.11774 8.47976 7.90919 8.52036 7.67984 8.52036C6.62477 8.52036 5.5697 8.52036 4.51462 8.52036C4.42197 8.51682 4.32919 8.52226 4.23758 8.5366C4.11259 8.56224 4.00089 8.63173 3.92264 8.73251C3.84438 8.8333 3.80473 8.95874 3.81085 9.0862C3.81485 9.21413 3.86596 9.33607 3.95437 9.42861C4.04277 9.52115 4.16224 9.57777 4.28984 9.58759C4.4238 9.60028 4.55978 9.59013 4.69577 9.59926C4.92968 9.61448 5.12148 9.7038 5.21992 9.93166C5.37823 10.2981 5.11844 10.6614 4.66888 10.6802C4.32333 10.6949 3.97677 10.6766 3.63122 10.6888C3.56335 10.6884 3.49607 10.7015 3.4333 10.7273C3.37053 10.7532 3.31353 10.7912 3.2656 10.8393C3.21768 10.8874 3.17979 10.9445 3.15414 11.0074C3.12849 11.0702 3.11559 11.1375 3.1162 11.2054C3.10656 11.5033 3.31409 11.7327 3.62666 11.7566C3.77888 11.7677 3.9311 11.7591 4.08332 11.7601C4.31115 11.7601 4.53999 11.7489 4.7663 11.7692C4.90278 11.7785 5.0306 11.8395 5.12374 11.9397C5.21687 12.0399 5.26832 12.1719 5.26762 12.3087C5.26153 12.5873 5.04892 12.805 4.74904 12.8299C4.61458 12.841 4.4786 12.8299 4.34312 12.841C4.11631 12.8578 3.93719 12.9562 3.85398 13.179C3.70632 13.5652 3.96053 13.9108 4.41213 13.922C4.89315 13.9336 5.37621 13.9184 5.8552 13.9367C5.98366 13.9401 6.10584 13.993 6.19623 14.0843C6.28663 14.1757 6.33823 14.2984 6.34028 14.4269C6.35262 14.5545 6.31621 14.6821 6.23837 14.7839C6.16052 14.8858 6.04702 14.9544 5.92066 14.976C5.77907 14.9967 5.63592 15.0047 5.49291 14.9999C5.10017 15.007 4.86626 15.2069 4.86575 15.5403C4.86524 15.8737 5.09205 16.0757 5.49139 16.0762C7.02714 16.0782 8.56341 16.0782 10.1002 16.0762C11.0891 16.0762 11.9467 15.7296 12.6707 15.0613C12.7617 14.9706 12.8159 14.8495 12.8229 14.7212C12.8321 12.6203 12.8321 10.5192 12.8229 8.41785C12.8169 8.28764 12.7686 8.16294 12.6854 8.06261C11.903 7.13393 10.9049 6.58483 9.70441 6.40569C8.64139 6.24787 7.73617 6.51785 7.02123 7.44298ZM18.2218 7.45516C18.133 7.45059 18.0589 7.444 17.9848 7.444C16.8624 7.444 15.7402 7.444 14.6182 7.444C14.0976 7.444 13.9184 7.62263 13.9184 8.14229C13.9184 10.5542 13.9184 12.9664 13.9184 15.3789C13.9184 15.8981 14.0981 16.0757 14.6192 16.0767C15.6151 16.0767 16.6108 16.0767 17.6063 16.0767H18.2218V7.45516ZM17.1562 13.9225C17.1537 13.637 17.0395 13.364 16.838 13.1618C16.6365 12.9596 16.3639 12.8445 16.0785 12.841C15.7932 12.8435 15.5203 12.9578 15.3183 13.1594C15.1163 13.3609 15.0014 13.6336 14.9982 13.9189C15.0002 14.2042 15.1142 14.4773 15.3156 14.6793C15.517 14.8813 15.7897 14.996 16.0749 14.9988C16.3599 14.9965 16.6326 14.8824 16.8344 14.6811C17.0362 14.4799 17.151 14.2075 17.1542 13.9225H17.1562Z" fill="#FF0000"/>
</svg>
