<svg width="30" height="30" viewBox="0 0 30 30" fill="none" xmlns="http://www.w3.org/2000/svg">
<path d="M24.2486 18.9434C23.9929 19.9932 23.2967 20.5386 22.2768 20.713C22.2323 20.7207 22.189 20.7313 22.1056 20.7491V21.0401C22.1056 22.3801 22.1056 23.7199 22.1056 25.0596C22.1056 26.4814 21.1789 27.4151 19.7722 27.4167C19.4073 27.4167 19.0425 27.4201 18.6776 27.4167C18.3599 27.4128 18.1635 27.234 18.169 26.9652C18.1745 26.7047 18.3638 26.5353 18.6677 26.532C19.0781 26.5275 19.4907 26.532 19.8989 26.5292C20.667 26.5192 21.2261 25.9532 21.2288 25.174C21.2343 23.6216 21.2288 22.0693 21.2288 20.5169C21.2288 20.017 21.343 19.916 21.8274 19.8654C22.1256 19.8394 22.418 19.7669 22.6943 19.6505C23.1365 19.4544 23.4048 19.0717 23.4075 18.5841C23.4163 17.0112 23.058 15.5455 22.054 14.2975C21.5796 13.6938 20.9442 13.2405 20.2232 12.9912C20.0103 12.9178 19.8358 12.8079 19.8177 12.5607C19.7996 12.3136 19.9565 12.183 20.1584 12.0797C21.3534 11.4688 21.9141 10.2163 21.5641 8.95446C21.2184 7.70424 20.0904 6.93167 18.7517 7.02887C18.4318 7.0522 18.2579 6.955 18.1899 6.71506C18.1131 6.44569 18.2826 6.20076 18.6068 6.15966C19.6493 6.03247 20.5781 6.32239 21.3644 7.02609C22.9198 8.41461 22.9368 10.8345 21.4126 12.2852L21.2579 12.4308C21.2656 12.4569 21.265 12.4813 21.2749 12.4863C22.826 13.4149 23.6709 14.8423 24.073 16.5752C24.1092 16.7318 24.1389 16.8896 24.1652 17.0484C24.2646 17.6477 24.2946 18.2566 24.2546 18.8629C24.2519 18.9107 24.2497 18.939 24.2486 18.9434ZM11.3158 13.852C10.2783 15.2078 9.87947 16.774 9.85204 18.458C9.83928 18.9094 9.96703 19.3534 10.2172 19.7273C10.4674 20.1011 10.8273 20.3859 11.2462 20.5414C11.498 20.638 11.7652 20.6952 12.0379 20.7741V21.0779C12.0379 22.4542 12.0307 23.831 12.0379 25.2073C12.0381 25.7919 12.2673 26.3525 12.6752 26.7663C13.0831 27.1802 13.6363 27.4134 14.2138 27.4151C14.7515 27.4234 15.2897 27.4151 15.8274 27.4151C17.2358 27.4151 18.1613 26.4809 18.163 25.0601C18.163 23.7205 18.163 22.3809 18.163 21.0412V20.7457C18.2617 20.728 18.3232 20.7163 18.3852 20.7058C19.438 20.5302 20.1864 19.8249 20.3219 18.8074C20.3768 18.4108 20.3356 17.9954 20.295 17.5933C20.1414 16.0687 19.6559 14.6718 18.6079 13.5349C18.2288 13.1233 17.7669 12.7907 17.346 12.4241C19.1248 10.8367 18.8466 8.41794 17.5501 7.14106C16.9055 6.50751 16.0461 6.14733 15.1477 6.13421C14.2494 6.1211 13.38 6.45606 12.7176 7.07052C11.4514 8.23688 10.957 10.7212 12.8976 12.4724C12.2841 12.82 11.7462 13.2893 11.3158 13.852ZM12.9135 20.4875C12.9135 20.0259 12.7857 19.9065 12.3396 19.8682C12.0777 19.8493 11.8195 19.7956 11.5715 19.7082C11.0657 19.5189 10.743 19.129 10.7376 18.583C10.7233 17.0095 11.0865 15.5444 12.0894 14.2969C12.5643 13.6939 13.1995 13.2408 13.9203 12.9912C14.1326 12.9173 14.3076 12.8079 14.3263 12.5613C14.3455 12.298 14.1699 12.1725 13.9614 12.067C12.7489 11.4488 12.1915 10.098 12.6183 8.82283C13.0408 7.56039 14.2901 6.82615 15.6052 7.06719C16.2256 7.18567 16.7824 7.52826 17.1719 8.03122C17.5615 8.53418 17.7573 9.16327 17.723 9.80146C17.6681 10.8328 17.1617 11.5949 16.2487 12.0659C16.0408 12.1725 15.8395 12.3019 15.8921 12.5563C15.9223 12.7018 16.0567 12.8895 16.1878 12.9384C17.9095 13.5666 18.7989 14.9073 19.2394 16.6085C19.3859 17.1739 19.4353 17.7721 19.4704 18.3592C19.517 19.1367 19.0628 19.6744 18.3029 19.8182C18.1415 19.8473 17.9784 19.8658 17.8146 19.8738C17.4382 19.896 17.2939 20.0404 17.2934 20.4292C17.2934 21.9532 17.2934 23.4774 17.2934 25.0018C17.2934 26.0177 16.7842 26.5297 15.7764 26.5303C15.293 26.5303 14.8102 26.5303 14.3268 26.5303C13.4589 26.5275 12.9184 25.9749 12.9162 25.0862C12.9162 24.319 12.9162 23.5522 12.9162 22.7858C12.9162 22.0193 12.9153 21.2532 12.9135 20.4875ZM7.36721 13.8643C6.33959 15.2133 5.94072 16.7701 5.91274 18.4447C5.89573 19.4144 6.44164 20.2176 7.34471 20.5552C7.58173 20.6435 7.83082 20.6963 8.09856 20.7724V21.064C8.09856 22.4497 8.09033 23.8355 8.10185 25.2207C8.10499 25.8001 8.33307 26.3551 8.73687 26.7659C9.14067 27.1766 9.68782 27.4102 10.2602 27.4162C10.6887 27.4245 11.1172 27.4217 11.5457 27.4162C11.8447 27.4123 12.0362 27.2334 12.0357 26.9718C12.0351 26.7103 11.8458 26.5347 11.5446 26.5303C11.171 26.5253 10.7974 26.5303 10.4237 26.5303C9.51078 26.5303 8.97475 25.991 8.9742 25.0729C8.9742 23.53 8.9742 21.9874 8.9742 20.4453C8.9742 20.0393 8.8321 19.9049 8.44037 19.871C8.18654 19.8541 7.93545 19.8079 7.69201 19.7332C7.10605 19.5405 6.76863 19.0518 6.79168 18.4291C6.80759 17.9965 6.82679 17.5577 6.91018 17.1356C7.2893 15.2128 8.14794 13.6554 10.0891 12.9339C10.218 12.8856 10.3546 12.6862 10.3689 12.5452C10.3815 12.418 10.2383 12.2675 10.1494 12.1403C10.117 12.0942 10.0397 12.0814 9.98481 12.052C8.99176 11.5382 8.39812 10.413 8.55832 9.34714C8.73828 8.14412 9.57662 7.25103 10.7321 7.06275C11.0064 7.01776 11.2939 7.04386 11.5753 7.03887C11.8195 7.03442 12.0044 6.87835 12.0329 6.65008C12.0615 6.42181 11.9111 6.22853 11.6708 6.17243C11.5996 6.15596 11.5274 6.14445 11.4546 6.138C9.11027 5.9275 7.20865 8.16134 7.75675 10.4763C7.94384 11.2672 8.35313 11.9142 8.98957 12.4641C8.35914 12.8125 7.80677 13.2892 7.36721 13.8643ZM12.8027 3.46593C12.4916 3.76697 12.2403 4.13909 11.9995 4.50455C11.8211 4.77503 11.9001 5.04773 12.1306 5.17492C12.361 5.30211 12.6008 5.21158 12.7599 4.9261C12.7774 4.89389 12.7933 4.86056 12.8109 4.82835C13.7392 3.16213 16.0386 2.99551 17.1864 4.51121C17.3076 4.67117 17.3927 4.8589 17.5041 5.02663C17.7027 5.32655 18.1383 5.31322 18.2519 4.98608C18.2969 4.82135 18.2791 4.64547 18.2019 4.49344C17.5436 3.2571 16.5011 2.64227 15.344 2.58062C14.2643 2.57617 13.4243 2.86665 12.8027 3.46593Z" fill="#FF0000"/>
</svg>
