 <svg
              width="323"
              height="249"
              viewBox="0 0 323 249"
              fill="none"
              xmlns="http://www.w3.org/2000/svg"
            >
              <g clip-path="url(#clip0_812_2399)">
                <path
                  d="M195.738 138.963C161.119 141.957 137.708 100.509 135.253 69.71C132.837 39.4517 145.453 3.81773 102.436 0.180295C70.2652 -2.58158 39.9032 31.0373 37.8554 62.5832C35.3683 100.876 78.0301 88.7405 88.715 117.537C96.2538 137.907 74.1412 155.122 77.5909 175.131C85.2524 219.598 134.213 182.406 155.802 194.323C170.499 202.428 174.484 219.064 194.42 221.323C212.204 223.345 228.787 213.064 239.64 198.7C269.647 159.036 233.619 135.66 195.738 138.963Z"
                  fill="#FF0000"
                />
                <g opacity="0.9">
                  <path
                    d="M195.738 138.963C161.119 141.957 137.708 100.509 135.253 69.71C132.837 39.4517 145.453 3.81773 102.436 0.180295C70.2652 -2.58158 39.9032 31.0373 37.8554 62.5832C35.3683 100.876 78.0301 88.7405 88.715 117.537C96.2538 137.907 74.1412 155.122 77.5909 175.131C85.2524 219.598 134.213 182.406 155.802 194.323C170.499 202.428 174.484 219.064 194.42 221.323C212.204 223.345 228.787 213.064 239.64 198.7C269.647 159.036 233.619 135.66 195.738 138.963Z"
                    fill="#FFDADA"
                  />
                </g>
                <path d="M323 219.92H0V220.081H323V219.92Z" fill="#EBEBEB" />
                <path
                  d="M290.635 230.285H269.24V230.446H290.635V230.285Z"
                  fill="#EBEBEB"
                />
                <path
                  d="M213.968 232.03H208.354V232.19H213.968V232.03Z"
                  fill="#EBEBEB"
                />
                <path
                  d="M268.594 224.304H256.197V224.465H268.594V224.304Z"
                  fill="#EBEBEB"
                />
                <path
                  d="M61.7899 225.386H33.8892V225.547H61.7899V225.386Z"
                  fill="#EBEBEB"
                />
                <path
                  d="M71.6351 225.386H67.5459V225.547H71.6351V225.386Z"
                  fill="#EBEBEB"
                />
                <path
                  d="M145.447 228.109H84.9297V228.27H145.447V228.109Z"
                  fill="#EBEBEB"
                />
                <path
                  d="M153.102 191.213H28.3658C27.3886 191.211 26.4521 190.823 25.7617 190.134C25.0713 189.445 24.6836 188.511 24.6836 187.537V12.7922C24.6921 11.8239 25.0836 10.8981 25.773 10.2159C26.4625 9.5336 27.3942 9.14997 28.3658 9.14832H153.102C154.08 9.14832 155.018 9.53561 155.71 10.225C156.402 10.9144 156.791 11.8494 156.791 12.8244V187.537C156.791 188.512 156.402 189.447 155.71 190.136C155.018 190.826 154.08 191.213 153.102 191.213ZM28.3658 9.27707C27.4315 9.27878 26.536 9.64987 25.8759 10.3089C25.2158 10.9679 24.8451 11.861 24.8451 12.7922V187.537C24.8451 188.468 25.2158 189.361 25.8759 190.02C26.536 190.679 27.4315 191.05 28.3658 191.052H153.102C154.037 191.05 154.933 190.68 155.594 190.021C156.255 189.362 156.627 188.469 156.629 187.537V12.7922C156.627 11.8604 156.255 10.9673 155.594 10.3085C154.933 9.64966 154.037 9.27878 153.102 9.27707H28.3658Z"
                  fill="#EBEBEB"
                />
                <path
                  d="M292.838 191.213H168.096C167.118 191.211 166.181 190.824 165.49 190.135C164.798 189.446 164.409 188.511 164.407 187.537V12.7922C164.417 11.8234 164.81 10.8976 165.501 10.2155C166.191 9.53337 167.124 9.14996 168.096 9.14832H292.838C293.809 9.15167 294.739 9.53604 295.427 10.2181C296.115 10.9002 296.506 11.825 296.514 12.7922V187.537C296.514 188.51 296.127 189.443 295.438 190.132C294.749 190.821 293.815 191.21 292.838 191.213ZM168.096 9.27707C167.161 9.27878 166.265 9.64966 165.604 10.3085C164.943 10.9673 164.57 11.8604 164.569 12.7922V187.537C164.57 188.469 164.943 189.362 165.604 190.021C166.265 190.68 167.161 191.05 168.096 191.052H292.838C293.773 191.05 294.67 190.68 295.331 190.021C295.992 189.362 296.364 188.469 296.366 187.537V12.7922C296.364 11.8604 295.992 10.9673 295.331 10.3085C294.67 9.64966 293.773 9.27878 292.838 9.27707H168.096Z"
                  fill="#EBEBEB"
                />
                <path
                  d="M267.321 119.565V40.0825H214V119.565H267.321Z"
                  fill="#E6E6E6"
                />
                <path
                  d="M265.7 119.565V40.0825H212.379V119.565H265.7Z"
                  fill="#F5F5F5"
                />
                <path
                  d="M258.846 46.9133H219.233V112.741H258.846V46.9133Z"
                  fill="white"
                />
                <path
                  d="M220.137 112.735V46.9067H219.239V112.735H220.137Z"
                  fill="#E6E6E6"
                />
                <path
                  d="M138.78 219.92H161.39V147.242H138.78V219.92Z"
                  fill="#E6E6E6"
                />
                <path
                  d="M143.07 219.926H138.774V209.613H147.572L143.07 219.926Z"
                  fill="#F0F0F0"
                />
                <path
                  d="M259.601 219.913H282.211V147.235H259.601V219.913Z"
                  fill="#E6E6E6"
                />
                <path
                  d="M138.78 218.407H263.348V147.242H138.78V218.407Z"
                  fill="#F0F0F0"
                />
                <path
                  d="M142.107 151.581V167.94H217.779V151.581H142.107Z"
                  fill="#E6E6E6"
                />
                <path
                  d="M220.667 151.581V167.94H260.021V151.581H220.667Z"
                  fill="#E6E6E6"
                />
                <path
                  d="M236.436 153.558H244.22C247.347 153.625 250.434 152.855 253.161 151.33H227.502C230.227 152.854 233.312 153.623 236.436 153.558Z"
                  fill="#F0F0F0"
                />
                <path
                  d="M157.488 153.558H201.591C204.717 153.625 207.804 152.855 210.531 151.33H148.58C151.298 152.849 154.373 153.618 157.488 153.558Z"
                  fill="#F0F0F0"
                />
                <path
                  d="M142.114 172.627V188.986H217.786V172.627H142.114Z"
                  fill="#E6E6E6"
                />
                <path
                  d="M220.667 172.627V188.986H260.021V172.627H220.667Z"
                  fill="#E6E6E6"
                />
                <path
                  d="M236.436 174.603H244.22C247.346 174.669 250.432 173.902 253.161 172.382H227.502C230.229 173.901 233.313 174.668 236.436 174.603Z"
                  fill="#F0F0F0"
                />
                <path
                  d="M157.488 174.603H201.591C204.717 174.67 207.804 173.901 210.531 172.376H148.58C151.298 173.895 154.373 174.664 157.488 174.603Z"
                  fill="#F0F0F0"
                />
                <path
                  d="M142.107 193.672V210.031H217.779V193.672H142.107Z"
                  fill="#E6E6E6"
                />
                <path
                  d="M220.667 193.672V210.031H260.021V193.672H220.667Z"
                  fill="#E6E6E6"
                />
                <path
                  d="M236.436 195.642H244.22C247.347 195.709 250.434 194.94 253.161 193.415H227.502C230.227 194.938 233.312 195.707 236.436 195.642Z"
                  fill="#F0F0F0"
                />
                <path
                  d="M157.495 195.642H201.591C204.719 195.708 207.808 194.939 210.538 193.415H148.58C151.299 194.936 154.377 195.705 157.495 195.642Z"
                  fill="#F0F0F0"
                />
                <path
                  d="M259.052 219.92H263.342V209.613H254.55L259.052 219.92Z"
                  fill="#F0F0F0"
                />
                <path
                  d="M270.822 134.315C270.822 134.315 270.176 141.699 244.982 141.699C219.788 141.699 219.181 134.315 219.181 134.315H270.822Z"
                  fill="#FAFAFA"
                />
                <path
                  d="M270.823 139.838C270.823 139.838 270.177 147.223 244.983 147.223C219.789 147.223 219.214 139.838 219.214 139.838H270.823Z"
                  fill="#EBEBEB"
                />
                <path
                  d="M94.6973 219.92H120.55L112.889 153.661H94.6973V219.92Z"
                  fill="#E6E6E6"
                />
                <path
                  d="M51.0664 219.92H108.56L114.626 142.362H57.1323L51.0664 219.92Z"
                  fill="#E0E0E0"
                />
                <path
                  d="M46.9253 219.92H106.758L112.824 142.362H52.9977L46.9253 219.92Z"
                  fill="#F5F5F5"
                />
                <path
                  d="M101.106 213.81L106.215 148.478H58.6504L53.5405 213.81H101.106Z"
                  fill="white"
                />
                <path
                  d="M186.707 22.4619H40.2007V128.875H186.707V22.4619Z"
                  fill="#EBEBEB"
                />
                <path
                  d="M181.694 28.0951H45.2134V123.248H181.694V28.0951Z"
                  fill="#FAFAFA"
                />
                <path
                  d="M74.5806 123.248H60.2588L73.7473 28.0951H88.0691L74.5806 123.248Z"
                  fill="white"
                />
                <path
                  d="M109.975 123.248H95.647L109.135 28.0951H123.464L109.975 123.248Z"
                  fill="white"
                />
                <path
                  d="M155.602 123.248H148.438L161.926 28.0951H169.091L155.602 123.248Z"
                  fill="white"
                />
                <path
                  d="M122.572 123.248H115.408L128.896 28.0951H136.06L122.572 123.248Z"
                  fill="white"
                />
                <path
                  d="M90.9631 28.0951H84.2124V123.248H90.9631V28.0951Z"
                  fill="#EBEBEB"
                />
                <path
                  d="M90.9631 123.254H92.4683L92.4683 28.1015H90.9631L90.9631 123.254Z"
                  fill="#E0E0E0"
                />
                <path
                  d="M186.707 128.881H187.786V22.4685H186.707V128.881Z"
                  fill="#E0E0E0"
                />
                <path
                  d="M161.5 248.993C230.675 248.993 286.753 245.731 286.753 241.706C286.753 237.681 230.675 234.418 161.5 234.418C92.3247 234.418 36.2471 237.681 36.2471 241.706C36.2471 245.731 92.3247 248.993 161.5 248.993Z"
                  fill="#F5F5F5"
                />
                <path
                  d="M191.591 223.081L199.782 218.368L204.782 228.347L197.941 232.294L191.591 223.081Z"
                  fill="#FFC3BD"
                />
                <path
                  opacity="0.2"
                  d="M191.597 223.087L199.788 218.375L202.586 223.956L195.15 228.244L191.597 223.087Z"
                  fill="black"
                />
                <path
                  d="M194.537 190.923C200.351 177.532 209.892 161.953 205.977 147.609L179.905 143.501C179.905 143.501 174.517 175.601 175.583 188.767C176.694 202.454 192.909 226.75 192.909 226.75L202.243 221.291C202.243 221.291 198.187 200.522 194.537 190.923Z"
                  fill="#FF0000"
                />
                <g opacity="0.4">
                  <path
                    d="M194.537 190.923C200.351 177.532 209.892 161.953 205.977 147.609L179.905 143.501C179.905 143.501 174.517 175.601 175.583 188.767C176.694 202.454 192.909 226.75 192.909 226.75L202.243 221.291C202.243 221.291 198.187 200.522 194.537 190.923Z"
                    fill="black"
                  />
                </g>
                <path
                  d="M203.186 221.182L192.521 227.459L189.123 223.055L201.694 216.424L203.186 221.182Z"
                  fill="#FF0000"
                />
                <path
                  opacity="0.2"
                  d="M196.442 186.694C199.582 179.915 203.199 172.691 205.247 165.448C199.091 166.479 193.871 171.462 196.442 186.694Z"
                  fill="black"
                />
                <path
                  d="M204.511 225.984C204.473 225.933 204.423 225.892 204.365 225.864C204.307 225.837 204.243 225.824 204.179 225.827C204.115 225.831 204.053 225.85 203.998 225.883C203.943 225.916 203.897 225.962 203.865 226.017C202.521 228.315 198.651 230.523 197.153 231.309C196.804 231.498 196.543 231.814 196.423 232.191C195.693 234.431 192.805 237.779 192.805 237.779C192.923 238.295 193.099 238.796 193.328 239.272C193.4 239.42 193.504 239.55 193.633 239.652C193.762 239.755 193.913 239.827 194.073 239.863C194.234 239.9 194.401 239.9 194.562 239.863C194.722 239.827 194.873 239.755 195.002 239.652L206.894 229.995C206.996 229.914 207.08 229.812 207.139 229.697C207.198 229.581 207.232 229.454 207.238 229.324C207.244 229.194 207.222 229.065 207.174 228.944C207.126 228.823 207.053 228.714 206.959 228.624C206.084 227.8 205.266 226.918 204.511 225.984Z"
                  fill="#263238"
                />
                <path
                  d="M206.972 227.633L216.423 227.723L215.564 238.841L207.663 238.783L206.972 227.633Z"
                  fill="#FFC3BD"
                />
                <path
                  d="M216.41 237.135C216.418 237.075 216.409 237.015 216.386 236.959C216.363 236.904 216.326 236.855 216.279 236.818C216.231 236.781 216.175 236.757 216.115 236.749C216.056 236.74 215.995 236.746 215.939 236.768C213.355 237.708 209.02 236.993 207.386 236.665C206.99 236.592 206.581 236.673 206.242 236.89C204.149 238.178 200.428 238.95 200.428 238.95C200.168 239.399 199.952 239.871 199.782 240.36C199.728 240.524 199.714 240.697 199.74 240.867C199.766 241.037 199.832 241.198 199.933 241.338C200.034 241.477 200.167 241.591 200.32 241.669C200.473 241.748 200.643 241.789 200.816 241.79H215.389C215.514 241.79 215.636 241.765 215.751 241.717C215.865 241.668 215.968 241.598 216.054 241.509C216.141 241.42 216.208 241.314 216.252 241.199C216.297 241.083 216.318 240.96 216.313 240.837C216.258 239.602 216.29 238.365 216.41 237.135Z"
                  fill="#263238"
                />
                <path
                  opacity="0.2"
                  d="M206.972 227.633L216.43 227.723L215.945 233.955L207.36 233.877L206.972 227.633Z"
                  fill="black"
                />
                <path
                  d="M222.411 190.157C225.357 176.168 230.661 157.968 226.933 150.757L196.384 146.045C196.384 146.045 200.176 175.015 201.177 188.477C202.217 202.492 206.345 231.457 206.345 231.457H216.571C216.571 231.457 223.71 206.845 222.411 190.157Z"
                  fill="#FF0000"
                />
                <path
                  opacity="0.4"
                  d="M222.411 190.157C225.357 176.168 230.661 157.968 226.933 150.757L196.384 146.045C196.384 146.045 200.176 175.015 201.177 188.477C202.217 202.492 206.345 231.457 206.345 231.457H216.571C216.571 231.457 223.71 206.845 222.411 190.157Z"
                  fill="black"
                />
                <path
                  d="M217.702 231.862H205.395L205.202 226.757L218.761 226.976L217.702 231.862Z"
                  fill="#FF0000"
                />
                <path
                  d="M204.459 101.855L203.684 102.498L202.96 103.065C202.476 103.432 201.991 103.78 201.5 104.134C200.531 104.835 199.53 105.486 198.528 106.142C196.493 107.443 194.39 108.638 192.23 109.722C189.999 110.857 187.689 111.829 185.318 112.632C182.76 113.53 180.103 114.118 177.404 114.383L176.881 114.434C175.543 114.564 174.206 114.182 173.141 113.366C171.281 111.915 169.8 110.037 168.825 107.893C168.402 107.011 168.056 106.093 167.792 105.151C167.525 104.282 167.309 103.399 167.146 102.505C167.012 101.646 166.909 100.788 166.836 99.9296C166.778 99.0862 166.765 98.2493 166.765 97.4188C166.765 96.5883 166.829 95.7707 166.9 94.9595L167.049 93.7299L167.262 92.4423C167.381 91.728 167.728 91.0712 168.253 90.5704C168.778 90.0697 169.451 89.7519 170.172 89.6649C170.894 89.5779 171.624 89.7262 172.253 90.0877C172.883 90.4491 173.378 91.0042 173.664 91.6697L173.935 92.3135C174.032 92.5517 174.148 92.9187 174.265 93.2277L174.601 94.187C174.82 94.8308 175.066 95.4746 175.305 96.1184C175.752 97.3143 176.267 98.4836 176.849 99.6206C177.319 100.589 177.902 101.499 178.586 102.331C178.947 102.831 179.449 103.214 180.027 103.432L175.763 102.408C177.463 101.995 179.12 101.424 180.712 100.702C181.571 100.329 182.437 99.8974 183.296 99.4468C184.155 98.9961 185.04 98.5326 185.88 98.0304C187.611 97.0261 189.355 95.9574 191.048 94.8115C191.907 94.2514 192.753 93.6655 193.599 93.0925L194.853 92.2105L196.009 91.3929L196.274 91.2062C197.691 90.1246 199.481 89.6481 201.25 89.8818C203.02 90.1154 204.623 91.0399 205.709 92.452C206.794 93.864 207.272 95.6479 207.038 97.4113C206.803 99.1746 205.876 100.773 204.459 101.855Z"
                  fill="#FFC3BD"
                />
                <path
                  d="M173.677 92.159L170.337 94.3286C166.248 95.2235 166.003 89.7834 166.003 89.7834L164.827 87.2083C164.647 86.7412 164.64 86.2254 164.807 85.7535C164.974 85.2816 165.304 84.8844 165.738 84.6331L168.057 83.1009C168.515 82.7559 169.089 82.6025 169.659 82.6735C170.228 82.7444 170.748 83.034 171.106 83.4807L172.489 85.528C172.889 86.1225 173.137 86.8054 173.212 87.5173L173.677 92.159Z"
                  fill="#FFC3BD"
                />
                <path
                  d="M204.24 88.3348C197.844 87.955 184.698 96.1762 184.698 96.1762C183.186 100.979 185.822 110.082 189.679 112.335C189.679 112.335 199.466 108.144 204.065 104.069C209.634 99.157 217.179 89.1073 204.24 88.3348Z"
                  fill="#FF6666"
                />
                <path
                  d="M204.834 88.3349C213.612 88.856 222.305 90.3392 230.758 92.7578C235.635 94.2256 238.671 97.863 236.488 107.945C232.056 128.398 232.418 145.105 228.626 152.122C228.626 152.122 184.259 154.852 178.322 144.654C179.523 119.398 191.668 100.155 197.056 92.1977C197.909 90.9415 199.074 89.9261 200.436 89.2494C201.799 88.5727 203.313 88.2578 204.834 88.3349Z"
                  fill="#FF9090"
                />
                <path
                  d="M207.366 91.1483C208.51 90.3307 209.459 91.0518 210.17 89.6676C210.571 88.5543 210.571 87.3367 210.17 86.2233L222.986 81.6846C222.082 85.9851 221.371 89.4101 223.032 91.4059C223.09 94.7214 215.396 97.7537 208.897 96.524C203.128 95.4167 205.699 92.3265 207.366 91.1483Z"
                  fill="#FFC3BD"
                />
                <path
                  opacity="0.2"
                  d="M210.241 86.616L219.931 85.7275C216.998 89.0624 212.431 90.4337 210.286 89.1847C210.489 88.3384 210.473 87.4547 210.241 86.616Z"
                  fill="black"
                />
                <path
                  d="M209.304 74.5127C208.793 69.5619 213.632 63.2978 217.702 65.461C221.772 67.6241 209.304 74.5127 209.304 74.5127Z"
                  fill="#263238"
                />
                <path
                  d="M226.365 77.3389C223.781 82.972 221.933 86.7511 217.637 87.9099C209.11 90.2212 206.3 85.5537 207.121 79.2445C207.863 73.5727 211.933 65.2999 218.477 65.2098C219.926 65.19 221.356 65.5367 222.634 66.2176C223.911 66.8985 224.995 67.8912 225.783 69.1029C226.571 70.3146 227.038 71.7057 227.139 73.1461C227.241 74.5865 226.975 76.0291 226.365 77.3389Z"
                  fill="#FFC3BD"
                />
                <path
                  d="M224.886 81.8519C221.959 81.4334 219.815 76.1672 222.877 73.4118C225.939 70.6563 224.886 68.0168 222.664 67.2314C220.441 66.4459 216.404 67.0125 215.48 65.0425C214.556 63.0725 220.713 61.6432 224.285 63.9094C227.857 66.1755 227.676 64.8043 227.676 64.8043C227.78 64.9284 227.846 65.0791 227.868 65.2392C227.889 65.3992 227.864 65.5619 227.797 65.7086C227.729 65.8553 227.621 65.98 227.486 66.0683C227.35 66.1566 227.192 66.205 227.03 66.2077C229.841 68.0683 232.954 72.5491 230.054 74.3839C233.684 76.4376 228.038 81.3047 224.886 81.8519Z"
                  fill="#263238"
                />
                <path
                  d="M229.13 74.075C229.617 74.285 230.164 74.3162 230.672 74.163C231.181 74.0098 231.619 73.6821 231.908 73.238C231.908 73.238 232.521 75.633 229.13 74.075Z"
                  fill="#263238"
                />
                <path
                  d="M214.789 80.0492C215.066 79.9315 215.332 79.7893 215.583 79.6243C215.598 79.6105 215.609 79.594 215.617 79.5757C215.624 79.5575 215.628 79.5379 215.628 79.5181C215.628 79.4983 215.624 79.4786 215.617 79.4604C215.609 79.4422 215.598 79.4256 215.583 79.4118C215.556 79.3777 215.518 79.3544 215.475 79.3461C215.433 79.3378 215.388 79.3452 215.351 79.3668C214.787 79.7416 214.146 79.9853 213.475 80.0801C212.804 80.1748 212.121 80.118 211.475 79.914C211.438 79.8995 211.397 79.9002 211.36 79.9159C211.324 79.9315 211.296 79.961 211.281 79.9977C211.266 80.0344 211.267 80.0754 211.283 80.1116C211.299 80.1478 211.328 80.1763 211.365 80.1908C212.484 80.5732 213.706 80.5226 214.789 80.0492Z"
                  fill="#263238"
                />
                <path
                  opacity="0.2"
                  d="M218.232 75.6071C218.958 75.4558 219.715 75.5969 220.338 75.9999C219.617 76.0059 218.902 75.8725 218.232 75.6071Z"
                  fill="black"
                />
                <path
                  opacity="0.2"
                  d="M218.174 76.1028C218.509 76.1033 218.84 76.1768 219.143 76.318C219.447 76.4592 219.715 76.6648 219.931 76.9204C219.293 76.776 218.694 76.4972 218.174 76.1028Z"
                  fill="black"
                />
                <path
                  d="M226.003 83.4421C225.429 83.9562 224.759 84.3514 224.03 84.6045C223.301 84.8576 222.529 84.9637 221.759 84.9164C219.692 84.7748 219.963 83.1524 221.113 81.5687C222.134 80.133 223.807 78.0922 225.635 78.9935C227.463 79.8948 227.392 82.161 226.003 83.4421Z"
                  fill="#FFC3BD"
                />
                <path
                  d="M217.056 75.4591C216.875 75.9291 216.475 76.2123 216.171 76.1029C215.868 75.9935 215.758 75.5042 215.939 75.0342C216.12 74.5642 216.514 74.281 216.824 74.3904C217.134 74.4999 217.211 74.957 217.056 75.4591Z"
                  fill="#263238"
                />
                <path
                  d="M211.571 73.3087C211.397 73.7787 210.996 74.062 210.693 73.9525C210.389 73.8431 210.279 73.3538 210.46 72.8838C210.641 72.4138 211.035 72.1306 211.339 72.24C211.642 72.3495 211.752 72.8387 211.571 73.3087Z"
                  fill="#263238"
                />
                <path
                  d="M213.277 74.075L211.901 78.1952C211.405 78.3201 210.884 78.3009 210.399 78.1401C209.913 77.9792 209.484 77.6834 209.162 77.2875C210.532 75.1694 213.277 74.075 213.277 74.075Z"
                  fill="#ED847E"
                />
                <path
                  d="M219.543 72.6843C219.591 72.7005 219.643 72.7005 219.692 72.6843C219.769 72.6688 219.836 72.6235 219.88 72.5583C219.923 72.4932 219.939 72.4135 219.924 72.3367C219.845 71.8722 219.656 71.4332 219.373 71.056C219.09 70.6787 218.721 70.374 218.296 70.1671C218.26 70.1514 218.221 70.1432 218.182 70.1428C218.143 70.1425 218.104 70.1501 218.068 70.1651C218.032 70.1801 217.999 70.2023 217.972 70.2303C217.944 70.2583 217.923 70.2916 217.909 70.328C217.88 70.4008 217.881 70.4815 217.912 70.5535C217.942 70.6254 217.998 70.6831 218.07 70.7143C218.408 70.88 218.701 71.1235 218.926 71.4246C219.151 71.7258 219.3 72.0759 219.362 72.4461C219.368 72.4982 219.388 72.5478 219.42 72.5896C219.452 72.6315 219.494 72.6642 219.543 72.6843Z"
                  fill="#263238"
                />
                <path
                  d="M209.524 71.1069C209.571 71.1204 209.62 71.1215 209.668 71.1102C209.715 71.0989 209.759 71.0756 209.795 71.0426C210.066 70.7882 210.393 70.6017 210.75 70.4987C211.108 70.3957 211.484 70.3791 211.849 70.4503C211.887 70.461 211.926 70.4641 211.964 70.4595C212.003 70.4548 212.04 70.4426 212.074 70.4234C212.108 70.4042 212.137 70.3784 212.161 70.3477C212.184 70.3169 212.201 70.2817 212.211 70.2443C212.222 70.2066 212.225 70.1673 212.221 70.1284C212.216 70.0895 212.204 70.0519 212.185 70.0178C212.165 69.9837 212.139 69.9537 212.109 69.9296C212.078 69.9055 212.042 69.8877 212.004 69.8773C211.547 69.785 211.074 69.8022 210.625 69.9276C210.176 70.0529 209.763 70.2828 209.42 70.5983C209.365 70.6539 209.333 70.7291 209.333 70.8076C209.333 70.886 209.365 70.9613 209.42 71.0168C209.447 71.0548 209.482 71.0858 209.524 71.1069Z"
                  fill="#263238"
                />
                <path
                  d="M141.112 108.292L138.309 115.921C138.079 116.579 137.674 117.163 137.139 117.611C136.603 118.058 135.956 118.353 135.266 118.464L98.011 124.085C95.6079 124.452 94.1867 126.911 94.8392 129.576L107.882 183.101C108.528 185.773 111.009 187.64 113.412 187.279L202.088 173.895C204.491 173.528 205.912 171.075 205.266 168.403L189.549 103.902C188.903 101.23 186.423 99.363 184.019 99.7235L144.155 105.717C143.461 105.831 142.811 106.131 142.275 106.584C141.739 107.038 141.337 107.628 141.112 108.292Z"
                  fill="#FF0000"
                />
                <path
                  opacity="0.3"
                  d="M141.112 108.292L138.309 115.921C138.079 116.579 137.674 117.163 137.139 117.611C136.603 118.058 135.956 118.353 135.266 118.464L98.011 124.085C95.6079 124.452 94.1867 126.911 94.8392 129.576L107.882 183.101C108.528 185.773 111.009 187.64 113.412 187.279L202.088 173.895C204.491 173.528 205.912 171.075 205.266 168.403L189.549 103.902C188.903 101.23 186.423 99.363 184.019 99.7235L144.155 105.717C143.461 105.831 142.811 106.131 142.275 106.584C141.739 107.038 141.337 107.628 141.112 108.292Z"
                  fill="black"
                />
                <path
                  d="M121.997 30.0137C122.871 30.0152 123.745 30.0625 124.614 30.1553C127.921 25.5882 132.402 21.9938 137.586 19.7504C142.769 17.507 148.464 16.6976 154.07 17.4072C159.677 18.1168 164.988 20.3192 169.444 23.7828C173.901 27.2463 177.338 31.8429 179.394 37.0889C184.734 38.0002 189.535 40.8768 192.847 45.149C196.159 49.4212 197.74 54.7773 197.277 60.1561C196.813 65.535 194.34 70.5443 190.346 74.1917C186.352 77.839 181.129 79.8584 175.712 79.8497H121.997C115.436 79.7446 109.178 77.0731 104.575 72.4115C99.9723 67.7499 97.3926 61.4718 97.3926 54.9317C97.3926 48.3915 99.9723 42.1135 104.575 37.4519C109.178 32.7903 115.436 30.1188 121.997 30.0137Z"
                  fill="#FF0000"
                />
                <path
                  d="M124.316 71.1328V133.252H170.027V84.6589L156.461 71.1328H124.316Z"
                  fill="#FF9090"
                />
                <path
                  opacity="0.6"
                  d="M124.316 71.1328V133.252H170.027V84.6589L156.461 71.1328H124.316Z"
                  fill="white"
                />
                <path
                  opacity="0.4"
                  d="M156.461 84.6589V71.1328L170.027 84.6589H156.461Z"
                  fill="#FF6666"
                />
                <path
                  d="M125.789 187.048L122.55 187.535L122.648 188.178L125.886 187.691L125.789 187.048Z"
                  fill="#FF0000"
                />
                <path
                  d="M140.716 184.803L129.404 186.506L129.501 187.149L140.814 185.446L140.716 184.803Z"
                  fill="#FF0000"
                />
                <path
                  d="M157.417 114.389L153.199 121.4C152.828 122.017 152.327 122.546 151.73 122.951C151.133 123.356 150.455 123.626 149.743 123.743L112.494 129.37C111.307 129.575 110.233 130.2 109.469 131.129C108.705 132.058 108.303 133.23 108.334 134.43L110.498 183.256C110.506 183.813 110.635 184.362 110.876 184.864C111.117 185.367 111.464 185.812 111.893 186.169C112.323 186.525 112.825 186.785 113.365 186.93C113.904 187.075 114.469 187.102 115.02 187.009L203.697 173.618C204.884 173.413 205.958 172.789 206.722 171.86C207.486 170.931 207.889 169.759 207.857 168.558L205.273 109.728C205.265 109.171 205.136 108.622 204.895 108.119C204.655 107.617 204.307 107.172 203.878 106.815C203.448 106.459 202.947 106.199 202.407 106.054C201.867 105.909 201.302 105.882 200.751 105.975L160.854 112.02C160.142 112.141 159.466 112.416 158.872 112.825C158.279 113.235 157.782 113.768 157.417 114.389Z"
                  fill="#FF0000"
                />
                <path
                  d="M158.716 62.1261C158.557 62.1269 158.401 62.0805 158.269 61.9928C158.136 61.9052 158.033 61.7802 157.972 61.6338C157.911 61.4874 157.895 61.3263 157.926 61.1709C157.958 61.0155 158.035 60.8729 158.147 60.7612C160.31 58.5982 161.782 55.845 162.375 52.8493C162.969 49.8535 162.659 46.7496 161.484 43.9294C160.309 41.1092 158.322 38.6993 155.773 37.0039C153.225 35.3085 150.23 34.4036 147.165 34.4036C144.101 34.4036 141.106 35.3085 138.557 37.0039C136.009 38.6993 134.022 41.1092 132.847 43.9294C131.672 46.7496 131.362 49.8535 131.955 52.8493C132.549 55.845 134.021 58.5982 136.183 60.7612C136.258 60.8354 136.318 60.9237 136.359 61.0209C136.399 61.1182 136.42 61.2224 136.42 61.3278C136.42 61.4331 136.399 61.5374 136.359 61.6346C136.318 61.7318 136.258 61.8201 136.183 61.8943C136.031 62.0422 135.827 62.1249 135.615 62.1249C135.403 62.1249 135.199 62.0422 135.046 61.8943C132.651 59.5075 131.02 56.4664 130.359 53.1557C129.699 49.8451 130.038 46.4134 131.334 43.2948C132.63 40.1762 134.825 37.5106 137.641 35.6353C140.458 33.7599 143.769 32.7589 147.156 32.7589C150.543 32.7589 153.854 33.7599 156.67 35.6353C159.486 37.5106 161.682 40.1762 162.978 43.2948C164.274 46.4134 164.613 49.8451 163.952 53.1557C163.291 56.4664 161.66 59.5075 159.265 61.8943C159.119 62.0391 158.922 62.1221 158.716 62.1261Z"
                  fill="white"
                />
                <path
                  d="M154.039 66.9094V49.0956C154.039 48.3256 153.732 47.5871 153.185 47.0426C152.639 46.498 151.898 46.1921 151.125 46.1921H143.218C142.445 46.1921 141.704 46.498 141.158 47.0426C140.612 47.5871 140.305 48.3256 140.305 49.0956V66.9094H137.327L147.172 75.3624L157.01 66.9094H154.039Z"
                  fill="white"
                />
                <path
                  d="M233.723 111.17L233.329 112.052L232.96 112.857C232.708 113.391 232.444 113.906 232.185 114.428C231.662 115.464 231.093 116.469 230.525 117.479C229.366 119.501 228.105 121.463 226.746 123.357C226.048 124.31 225.338 125.289 224.575 126.196C223.813 127.104 223.005 128.038 222.153 128.939C220.386 130.837 218.417 132.538 216.281 134.012L215.835 134.315C215.606 134.468 215.361 134.595 215.105 134.694C212.831 135.525 210.434 135.973 208.012 136.021C205.974 136.092 203.933 136.013 201.907 135.782C199.975 135.558 198.056 135.236 196.158 134.817C194.269 134.402 192.405 133.88 190.576 133.252C189.844 132.995 189.223 132.496 188.815 131.837C188.408 131.179 188.239 130.402 188.336 129.634C188.433 128.867 188.791 128.156 189.351 127.619C189.91 127.083 190.636 126.753 191.41 126.686H191.545L196.784 126.241C198.529 126.087 200.247 125.92 201.914 125.694C202.747 125.585 203.567 125.475 204.362 125.34C205.156 125.205 205.932 125.038 206.668 124.877C207.879 124.637 209.048 124.22 210.137 123.641L208.968 124.323C210.232 123.159 211.394 121.89 212.443 120.531C213.012 119.816 213.561 119.057 214.097 118.278C214.633 117.499 215.176 116.7 215.699 115.889C216.726 114.248 217.747 112.554 218.703 110.823C219.194 109.96 219.653 109.078 220.124 108.209L221.416 105.685L221.571 105.383C222.383 103.847 223.759 102.684 225.412 102.139C227.066 101.594 228.866 101.708 230.437 102.458C232.007 103.208 233.225 104.535 233.834 106.161C234.443 107.787 234.396 109.585 233.703 111.177L233.723 111.17Z"
                  fill="#FFC3BD"
                />
                <path
                  d="M235.79 99.7881C238.897 110.913 231.01 121.973 231.01 121.973C226.83 123.164 215.816 118.889 213.477 114.795C213.477 114.795 217.321 104.275 221.875 98.7001C226.1 93.4854 233.962 93.2665 235.79 99.7881Z"
                  fill="#FF6666"
                />
                <path
                  d="M192.708 126.963L193.354 130.89C192.489 134.971 187.411 132.963 187.411 132.963H184.582C184.082 132.933 183.609 132.728 183.247 132.384C182.885 132.04 182.657 131.579 182.605 131.083L182.153 128.34C182.025 127.782 182.121 127.197 182.421 126.709C182.72 126.221 183.199 125.868 183.755 125.726L186.19 125.314C186.899 125.193 187.627 125.248 188.309 125.475L192.708 126.963Z"
                  fill="#FFC3BD"
                />
              </g>
              <defs>
                <clipPath id="clip0_812_2399">
                  <rect width="323" height="249" fill="white" />
                </clipPath>
              </defs>
            </svg>