 <svg
              width="303"
              height="304"
              viewBox="0 0 303 304"
              fill="none"
              xmlns="http://www.w3.org/2000/svg"
            >
              <g clip-path="url(#clip0_812_4289)">
                <path
                  d="M151.5 303.993C235.171 303.993 303 265.095 303 217.113C303 169.131 235.171 130.233 151.5 130.233C67.8289 130.233 0 169.131 0 217.113C0 265.095 67.8289 303.993 151.5 303.993Z"
                  fill="#F5F5F5"
                />
                <path
                  d="M175.275 277.956C193.37 277.956 208.038 269.545 208.038 259.169C208.038 248.794 193.37 240.382 175.275 240.382C157.18 240.382 142.511 248.794 142.511 259.169C142.511 269.545 157.18 277.956 175.275 277.956Z"
                  fill="#E0E0E0"
                />
                <path
                  d="M158.247 195.552L70.6135 245.816C68.1468 247.257 63.8446 247.055 60.9934 245.419L29.8837 227.577C27.0397 225.948 26.7277 223.476 29.1582 222.064L116.792 171.799C119.259 170.358 123.561 170.56 126.412 172.196L157.522 190.039C160.402 191.667 160.714 194.139 158.247 195.552Z"
                  fill="#E0E0E0"
                />
                <path
                  d="M252.606 213.099L259.513 217.084C259.513 217.084 256.031 206.044 257.96 194.932C258.427 192.316 259.379 189.808 260.768 187.538C261.312 186.414 265.477 179.489 261.813 176.289C258.149 173.089 249.552 179.453 249.936 196.56C250.121 202.163 251.018 207.72 252.606 213.099Z"
                  fill="#FF0000"
                />
                <path
                  opacity="0.5"
                  d="M252.606 213.099L259.513 217.084C259.513 217.084 256.031 206.044 257.96 194.932C258.427 192.316 259.379 189.808 260.768 187.538C261.312 186.414 265.477 179.489 261.813 176.289C258.149 173.089 249.552 179.453 249.936 196.56C250.121 202.163 251.018 207.72 252.606 213.099Z"
                  fill="black"
                />
                <path
                  d="M255.821 215.268C255.756 215.268 255.692 215.247 255.639 215.21C255.586 215.173 255.546 215.12 255.523 215.059C255.523 214.987 252.89 207.788 253.028 196.243C253.166 184.699 259.311 178.429 259.376 178.372C259.404 178.343 259.438 178.32 259.475 178.304C259.513 178.289 259.553 178.281 259.594 178.281C259.634 178.281 259.674 178.289 259.712 178.304C259.749 178.32 259.783 178.343 259.811 178.372C259.84 178.4 259.863 178.435 259.879 178.472C259.895 178.51 259.903 178.551 259.903 178.591C259.903 178.632 259.895 178.673 259.879 178.71C259.863 178.748 259.84 178.782 259.811 178.811C259.753 178.869 253.789 184.901 253.652 196.251C253.514 207.601 256.089 214.778 256.111 214.85C256.126 214.888 256.133 214.928 256.132 214.969C256.131 215.01 256.122 215.05 256.105 215.087C256.088 215.124 256.064 215.157 256.034 215.184C256.004 215.212 255.968 215.233 255.93 215.247L255.821 215.268Z"
                  fill="white"
                />
                <path
                  d="M257.961 216.212L269.366 222.9C269.366 222.9 274.59 222.136 274.198 217.25C273.806 212.364 271.68 211.218 274.321 209.071C276.962 206.923 277.644 206.786 277.513 204.682C277.383 202.578 275.968 201.663 275.293 200.834C274.619 200.005 272.761 198.247 274.075 195.717C275.388 193.188 277.165 190.73 274.524 189.563C272.943 188.842 270.287 189.743 268.532 191.595C266.776 193.447 265.318 194.788 263.656 195.198C261.995 195.609 258.512 195.66 258.629 198.513C258.745 201.367 259.492 202.354 258.795 203.615C257.482 206.001 251.874 207.291 257.961 216.212Z"
                  fill="#FF0000"
                />
                <path
                  opacity="0.2"
                  d="M257.961 216.212L269.366 222.9C269.366 222.9 274.59 222.136 274.198 217.25C273.806 212.364 271.68 211.218 274.321 209.071C276.962 206.923 277.644 206.786 277.513 204.682C277.383 202.578 275.968 201.663 275.293 200.834C274.619 200.005 272.761 198.247 274.075 195.717C275.388 193.188 277.165 190.73 274.524 189.563C272.943 188.842 270.287 189.743 268.532 191.595C266.776 193.447 265.318 194.788 263.656 195.198C261.995 195.609 258.512 195.66 258.629 198.513C258.745 201.367 259.492 202.354 258.795 203.615C257.482 206.001 251.874 207.291 257.961 216.212Z"
                  fill="black"
                />
                <path
                  d="M262.604 219.239C262.525 219.239 262.449 219.209 262.391 219.156C262.333 219.102 262.297 219.029 262.292 218.951C262.292 218.785 261.044 201.893 272.855 190.803C272.916 190.746 272.997 190.716 273.08 190.719C273.163 190.721 273.241 190.757 273.298 190.817C273.355 190.877 273.385 190.957 273.382 191.04C273.379 191.122 273.344 191.2 273.283 191.257C261.675 202.138 262.909 218.734 262.923 218.9C262.929 218.983 262.902 219.065 262.848 219.128C262.793 219.192 262.716 219.231 262.633 219.239H262.604Z"
                  fill="white"
                />
                <path
                  d="M264.679 204.761C264.599 204.761 264.523 204.732 264.465 204.678C264.407 204.625 264.372 204.551 264.367 204.473C264.278 203.176 263.925 201.911 263.329 200.754C262.733 199.597 261.906 198.572 260.899 197.742C260.865 197.718 260.837 197.688 260.816 197.653C260.794 197.618 260.78 197.579 260.773 197.538C260.767 197.498 260.769 197.457 260.778 197.417C260.788 197.377 260.805 197.339 260.83 197.306C260.854 197.273 260.885 197.245 260.92 197.224C260.955 197.202 260.994 197.188 261.035 197.182C261.076 197.175 261.117 197.177 261.157 197.187C261.198 197.196 261.235 197.214 261.269 197.238C262.357 198.118 263.249 199.213 263.89 200.454C264.53 201.694 264.905 203.053 264.991 204.444C264.997 204.525 264.97 204.605 264.917 204.667C264.864 204.729 264.789 204.768 264.708 204.776L264.679 204.761Z"
                  fill="white"
                />
                <path
                  d="M263.808 207.644C263.731 207.645 263.655 207.617 263.598 207.564C263.541 207.505 263.509 207.427 263.509 207.345C263.509 207.263 263.541 207.184 263.598 207.125C263.721 206.988 266.696 203.796 273.574 204.732C273.655 204.747 273.728 204.791 273.778 204.856C273.828 204.922 273.851 205.004 273.842 205.086C273.829 205.167 273.785 205.241 273.719 205.291C273.652 205.34 273.569 205.362 273.487 205.352C266.957 204.466 264.091 207.514 264.055 207.514C264.028 207.555 263.992 207.588 263.948 207.61C263.905 207.633 263.857 207.644 263.808 207.644Z"
                  fill="white"
                />
                <path
                  d="M43.4869 203.399L40.0843 210.57C40.0843 210.57 36.6382 199.515 28.7011 191.451C26.8282 189.556 24.6132 188.028 22.1716 186.947C21.0906 186.327 13.7049 182.969 14.9165 178.3C16.1281 173.63 26.8148 173.976 36.2754 188.295C39.3107 193.008 41.7337 198.083 43.4869 203.399Z"
                  fill="#FF0000"
                />
                <path
                  opacity="0.5"
                  d="M43.4869 203.399L40.0843 210.57C40.0843 210.57 36.6382 199.515 28.7011 191.451C26.8282 189.556 24.6132 188.028 22.1716 186.947C21.0906 186.327 13.7049 182.969 14.9165 178.3C16.1281 173.63 26.8148 173.976 36.2754 188.295C39.3107 193.008 41.7337 198.083 43.4869 203.399Z"
                  fill="black"
                />
                <path
                  d="M41.9051 207.046C41.836 207.045 41.769 207.023 41.714 206.981C41.6591 206.939 41.6192 206.881 41.6004 206.815C41.6004 206.743 39.6415 199.443 33.0031 190.111C26.3647 180.779 18.0577 179.237 18.0069 179.222C17.9664 179.215 17.9276 179.2 17.8928 179.178C17.8581 179.156 17.828 179.128 17.8044 179.094C17.7808 179.061 17.7641 179.023 17.7553 178.983C17.7465 178.943 17.7457 178.902 17.753 178.862C17.7689 178.781 17.8155 178.71 17.8832 178.663C17.9508 178.616 18.0342 178.597 18.1157 178.61C18.2028 178.61 26.8218 180.267 33.5545 189.751C40.2872 199.234 42.2606 206.585 42.2606 206.657C42.2806 206.737 42.2683 206.822 42.2263 206.893C42.1843 206.964 42.1159 207.017 42.0357 207.039L41.9051 207.046Z"
                  fill="white"
                />
                <path
                  d="M40.8603 208.984L35.2739 220.896C35.2739 220.896 30.5364 223.21 28.0769 218.965C25.6175 214.72 26.6985 212.58 23.3031 212.299C19.9077 212.018 19.2548 212.299 18.1593 210.49C17.0638 208.682 17.7095 207.125 17.7893 206.066C17.8691 205.006 18.4059 202.506 15.8739 201.158C13.3419 199.81 10.4762 198.802 11.9925 196.351C12.8921 194.91 15.5765 194.11 18.0867 194.651C20.597 195.191 22.5486 195.465 24.1664 194.881C25.7843 194.298 28.6646 192.366 30.2027 194.78C31.7407 197.195 31.6537 198.427 32.9813 199.104C35.419 200.301 40.7733 198.196 40.8603 208.984Z"
                  fill="#FF0000"
                />
                <path
                  opacity="0.2"
                  d="M40.8603 208.984L35.2739 220.896C35.2739 220.896 30.5364 223.21 28.0769 218.965C25.6175 214.72 26.6985 212.58 23.3031 212.299C19.9077 212.018 19.2548 212.299 18.1593 210.49C17.0638 208.682 17.7095 207.125 17.7893 206.066C17.8691 205.006 18.4059 202.506 15.8739 201.158C13.3419 199.81 10.4762 198.802 11.9925 196.351C12.8921 194.91 15.5765 194.11 18.0867 194.651C20.597 195.191 22.5486 195.465 24.1664 194.881C25.7843 194.298 28.6646 192.366 30.2027 194.78C31.7407 197.195 31.6537 198.427 32.9813 199.104C35.419 200.301 40.7733 198.196 40.8603 208.984Z"
                  fill="black"
                />
                <path
                  d="M38.5822 214.144C38.5273 214.144 38.4733 214.129 38.426 214.101C38.3787 214.073 38.34 214.033 38.3138 213.985C38.2267 213.841 29.7456 199.493 13.9876 197.065C13.9464 197.059 13.9068 197.044 13.8713 197.023C13.8357 197.001 13.8048 196.973 13.7805 196.939C13.7561 196.906 13.7388 196.868 13.7295 196.827C13.7202 196.787 13.7192 196.745 13.7264 196.705C13.7317 196.664 13.7452 196.625 13.7661 196.589C13.7871 196.554 13.815 196.523 13.8482 196.499C13.8815 196.475 13.9193 196.458 13.9595 196.448C13.9997 196.439 14.0413 196.438 14.0819 196.445C30.1446 198.924 38.7491 213.531 38.8579 213.675C38.8841 213.723 38.8975 213.777 38.8966 213.832C38.8957 213.886 38.8807 213.94 38.853 213.987C38.8253 214.034 38.7858 214.073 38.7384 214.101C38.6909 214.128 38.6372 214.143 38.5822 214.144Z"
                  fill="white"
                />
                <path
                  d="M28.6357 203.378C28.5798 203.378 28.5249 203.363 28.4766 203.335C28.4282 203.307 28.388 203.267 28.36 203.219C27.6395 202.026 27.1754 200.697 26.9969 199.317C26.8183 197.936 26.9292 196.534 27.3226 195.198C27.3364 195.16 27.3577 195.125 27.3852 195.095C27.4127 195.065 27.446 195.04 27.483 195.023C27.5201 195.005 27.5602 194.995 27.6011 194.993C27.6421 194.991 27.683 194.997 27.7216 195.011C27.7602 195.025 27.7957 195.046 27.826 195.073C27.8564 195.101 27.881 195.134 27.8986 195.17C27.9161 195.207 27.9261 195.247 27.9281 195.288C27.9301 195.328 27.924 195.369 27.9102 195.407C27.5555 196.659 27.4594 197.969 27.6277 199.258C27.7961 200.547 28.2253 201.789 28.8897 202.909C28.9104 202.945 28.9238 202.984 28.9291 203.024C28.9345 203.065 28.9317 203.106 28.9209 203.146C28.9101 203.185 28.8916 203.222 28.8663 203.255C28.841 203.287 28.8095 203.314 28.7736 203.334C28.7322 203.36 28.6847 203.375 28.6357 203.378Z"
                  fill="white"
                />
                <path
                  d="M21.6782 208.854C21.6347 208.854 21.5918 208.845 21.5519 208.827C21.512 208.81 21.476 208.785 21.4461 208.754C21.4169 208.725 21.3937 208.691 21.3779 208.653C21.3621 208.615 21.354 208.575 21.354 208.534C21.354 208.493 21.3621 208.452 21.3779 208.415C21.3937 208.377 21.4169 208.343 21.4461 208.314C26.5681 203.666 30.8776 204.617 31.0227 204.66C31.0628 204.67 31.1007 204.687 31.1341 204.711C31.1675 204.735 31.1958 204.765 31.2174 204.8C31.239 204.835 31.2534 204.873 31.2598 204.914C31.2663 204.954 31.2646 204.995 31.2549 205.035C31.2464 205.075 31.2298 205.114 31.2059 205.147C31.1821 205.181 31.1516 205.21 31.1163 205.231C31.081 205.253 31.0416 205.267 31.0006 205.273C30.9595 205.279 30.9177 205.276 30.8776 205.266C30.8341 205.266 26.7277 204.365 21.8669 208.775C21.8139 208.821 21.7479 208.848 21.6782 208.854Z"
                  fill="white"
                />
                <path
                  d="M40.9402 58.2345C40.941 56.1362 41.497 54.075 42.5526 52.2575C43.6083 50.44 45.1263 48.93 46.9547 47.8789L123.51 3.97785C124.021 3.68536 124.591 3.51023 125.179 3.46535C125.767 3.42046 126.357 3.50695 126.907 3.71847C127.457 3.92998 127.952 4.26114 128.356 4.68763C128.76 5.11411 129.062 5.62508 129.241 6.18299C129.036 5.28915 128.651 4.4456 128.11 3.70272C127.569 2.95983 126.883 2.33284 126.093 1.85918L125.817 1.70064C123.912 0.574828 121.737 -0.0201429 119.52 -0.021676C118.811 -0.0283413 118.114 0.155957 117.503 0.511595L40.9475 44.4343C39.1163 45.4828 37.5956 46.992 36.5384 48.8099C35.4813 50.6279 34.9251 52.6904 34.9258 54.7898V219.232C34.9267 219.919 35.1093 220.593 35.4554 221.188C35.8015 221.783 36.2989 222.277 36.8977 222.621C37.4966 222.965 38.1758 223.146 38.8675 223.147C39.5592 223.148 40.2389 222.968 40.8387 222.626L40.9402 222.568V58.2345Z"
                  fill="#37474F"
                />
                <path
                  d="M123.409 182.169L46.8533 226.07C46.2545 226.415 45.5749 226.596 44.883 226.597C44.1911 226.597 43.5113 226.417 42.9119 226.074C42.3125 225.73 41.8147 225.236 41.4686 224.641C41.1226 224.046 40.9404 223.371 40.9404 222.683V58.2345C40.9412 56.1362 41.4973 54.075 42.5529 52.2575C43.6085 50.44 45.1265 48.93 46.9549 47.879L123.51 3.97785C124.11 3.63561 124.79 3.45592 125.481 3.45679C126.173 3.45766 126.852 3.63907 127.451 3.98283C128.05 4.32659 128.547 4.82064 128.893 5.41547C129.24 6.0103 129.422 6.68502 129.423 7.37204V171.814C129.424 173.912 128.868 175.974 127.813 177.792C126.757 179.61 125.238 181.119 123.409 182.169Z"
                  fill="#455A64"
                />
                <path
                  d="M40.9402 222.683V58.2345C40.941 56.443 41.3477 54.6746 42.13 53.0603L36.2099 49.4572C35.3668 51.123 34.927 52.9614 34.9258 54.8259V220.644C34.9259 221.296 35.0965 221.937 35.4208 222.504C35.745 223.072 36.2119 223.545 36.7758 223.88L39.8302 225.681C40.8874 226.309 42.0958 226.64 43.3271 226.64H44.8507C44.3324 226.635 43.8201 226.529 43.3431 226.328C42.866 226.126 42.4336 225.833 42.0705 225.466C41.7074 225.099 41.4207 224.664 41.2267 224.186C41.0328 223.709 40.9354 223.198 40.9402 222.683Z"
                  fill="#263238"
                />
                <path
                  d="M120.775 19.7887V158.043C120.773 159.896 120.281 161.717 119.348 163.322C118.414 164.927 117.072 166.26 115.457 167.187L47.8541 205.95C47.3445 206.244 46.7674 206.403 46.1782 206.412C46.3732 206.86 46.6616 207.262 47.0242 207.591C47.3868 207.921 47.8156 208.17 48.2823 208.324C48.749 208.477 49.243 208.53 49.7319 208.48C50.2208 208.43 50.6935 208.278 51.1189 208.033L118.721 169.263C120.337 168.336 121.678 167.002 122.61 165.397C123.543 163.792 124.033 161.971 124.032 160.118V23.2333C124.034 22.3548 123.697 21.5089 123.092 20.8686C122.486 20.2283 121.657 19.842 120.775 19.7887Z"
                  fill="#37474F"
                />
                <path
                  d="M46.1785 206.376C46.7677 206.367 47.3447 206.208 47.8544 205.914L115.457 167.151C117.067 166.227 118.406 164.9 119.339 163.301C120.272 161.703 120.767 159.89 120.775 158.043V19.7887C120.096 19.7944 119.427 19.9494 118.816 20.2427L51.2135 59.0057C49.5967 59.932 48.2541 61.2648 47.3206 62.8701C46.387 64.4754 45.8955 66.2966 45.8955 68.1505V204.999C45.8948 205.48 45.9936 205.956 46.1857 206.397L46.1785 206.376Z"
                  fill="#FF0000"
                />
                <g opacity="0.5">
                  <path
                    d="M46.1785 206.376C46.7677 206.367 47.3447 206.208 47.8544 205.914L115.457 167.151C117.067 166.227 118.406 164.9 119.339 163.301C120.272 161.703 120.767 159.89 120.775 158.043V19.7887C120.096 19.7944 119.427 19.9494 118.816 20.2427L51.2135 59.0057C49.5967 59.932 48.2541 61.2648 47.3206 62.8701C46.387 64.4754 45.8955 66.2966 45.8955 68.1505V204.999C45.8948 205.48 45.9936 205.956 46.1857 206.397L46.1785 206.376Z"
                    fill="white"
                  />
                </g>
                <path
                  d="M74.4661 38.7486C74.4431 39.1678 74.3215 39.5759 74.1111 39.9401C73.9007 40.3042 73.6073 40.6144 73.2545 40.8456C72.5798 41.2276 72.0356 40.9177 72.0356 40.125C72.0589 39.705 72.1814 39.2963 72.3931 38.932C72.6049 38.5677 72.8999 38.258 73.2545 38.0279C73.922 37.6965 74.4661 37.9775 74.4661 38.7486Z"
                  fill="#263238"
                />
                <path
                  d="M79.0002 36.1543C78.9758 36.5741 78.8528 36.9823 78.6412 37.3465C78.4296 37.7106 78.1351 38.0205 77.7813 38.2514C77.1066 38.6333 76.5625 38.3234 76.5625 37.5307C76.5858 37.1107 76.7082 36.702 76.92 36.3377C77.1317 35.9734 77.4268 35.6637 77.7813 35.4337C78.4488 35.0734 79.0002 35.3832 79.0002 36.1543Z"
                  fill="#263238"
                />
                <path
                  d="M97.2755 27.067L82.5768 35.5345C81.9892 35.866 81.5176 35.5345 81.5176 34.7418C81.5237 34.3488 81.6228 33.9627 81.8068 33.6147C81.9908 33.2667 82.2546 32.9666 82.5768 32.7385L97.2973 24.2998C97.8777 23.9611 98.3493 24.2998 98.3493 25.0853C98.3376 25.4758 98.2344 25.8581 98.048 26.2021C97.8617 26.5461 97.5972 26.8422 97.2755 27.067Z"
                  fill="#263238"
                />
                <path
                  d="M94.787 187.358C95.6649 187.358 96.238 188.288 96.238 189.722C96.238 191.97 94.8233 194.687 93.1401 195.652L86.0955 199.695C85.7807 199.89 85.4211 200.002 85.0507 200.019C84.1729 200.019 83.5997 199.09 83.5997 197.656C83.5997 195.4 85.0507 192.683 86.6976 191.725L93.7423 187.682C94.0592 187.486 94.4214 187.375 94.7943 187.358M94.7943 186.76C94.3155 186.774 93.8494 186.916 93.4448 187.171L86.4002 191.206C84.5211 192.28 82.9976 195.17 82.9976 197.692C82.9976 199.544 83.8464 200.654 85.0507 200.654C85.5295 200.639 85.9956 200.498 86.4002 200.243L93.4448 196.207C95.3166 195.134 96.8402 192.244 96.8402 189.722C96.8402 187.87 95.9986 186.76 94.7943 186.76Z"
                  fill="#263238"
                />
                <path
                  d="M55.8711 77.843V232.78C55.8711 235.59 56.9086 237.471 58.4902 238.091H58.5337L65.2809 241.759L65.2374 235.806L64.5119 75.1551L57.3947 71.5519C56.4396 73.5165 55.92 75.6619 55.8711 77.843Z"
                  fill="#E6E6E6"
                />
                <path
                  d="M65.6509 242.357L58.3523 238.386C56.5458 237.665 55.5083 235.554 55.5083 232.744V77.807C55.5469 75.5597 56.074 73.3473 57.0536 71.3212L57.2132 70.9825L64.8601 74.8668V75.083L65.5856 235.734L65.6509 242.357ZM58.7223 237.766L64.9181 241.139V235.792L64.1926 75.3568L57.6123 72.013C56.7798 73.8401 56.3305 75.8163 56.2918 77.8214V232.758C56.2918 235.295 57.1842 237.154 58.686 237.738L58.7731 237.781L58.7223 237.766Z"
                  fill="#E6E6E6"
                />
                <path
                  d="M57.3804 71.5663L64.4976 75.1695L140.676 31.1459L145.754 28.2057L138.724 24.271L138.528 24.1557C137.404 23.4855 135.938 23.5288 134.32 24.4584L62.2195 65.8012C60.0659 67.203 58.3813 69.2099 57.3804 71.5663Z"
                  fill="#E0E0E0"
                />
                <path
                  d="M64.4976 75.5225C64.4392 75.5219 64.3819 75.5071 64.3307 75.4793L57.2135 71.8761C57.1717 71.8561 57.1343 71.8281 57.1036 71.7936C57.0729 71.7591 57.0494 71.7189 57.0345 71.6752C57.0196 71.6316 57.0137 71.5855 57.017 71.5395C57.0203 71.4936 57.0329 71.4488 57.0539 71.4077C58.0909 68.992 59.8253 66.9358 62.0381 65.4985L134.153 24.1412C135.822 23.19 137.447 23.0819 138.724 23.8458H138.782L138.927 23.9322L145.95 27.8597C146.005 27.8928 146.05 27.9394 146.082 27.9948C146.114 28.0503 146.131 28.113 146.131 28.1768C146.133 28.24 146.116 28.3022 146.084 28.3569C146.052 28.4115 146.006 28.4564 145.95 28.4867L64.6934 75.4505C64.6363 75.4923 64.5684 75.5173 64.4976 75.5225ZM57.8592 71.3789L64.4903 74.7514L145.021 28.2056L138.339 24.4583L138.289 24.4151C137.251 23.8241 135.909 23.9467 134.502 24.7538L62.3863 66.111C60.4043 67.4043 58.834 69.2315 57.8592 71.3789Z"
                  fill="#E0E0E0"
                />
                <path
                  d="M62.8506 81.7344V235.95C62.8506 238.379 63.6341 240.123 64.8748 240.944L65.2883 241.168C66.3693 241.672 67.726 241.564 69.1988 240.714L104.059 220.738L141.343 198.47C143.252 197.284 144.833 195.643 145.943 193.696C147.053 191.749 147.656 189.559 147.698 187.322V33.1059C147.698 30.7567 146.973 29.056 145.798 28.1984C145.599 28.0507 145.382 27.9296 145.152 27.8381C144.523 27.6172 143.85 27.5464 143.189 27.6315C142.527 27.7167 141.895 27.9553 141.343 28.3281L69.2278 70.3844C67.1932 71.4421 65.5476 73.1119 64.5265 75.155C63.4797 77.1961 62.907 79.4444 62.8506 81.7344Z"
                  fill="#FAFAFA"
                />
                <path
                  d="M141.343 198.47C126.506 207.262 87.9023 230.142 68.7924 241.579C68.2224 241.917 67.572 242.1 66.9077 242.108C66.2433 242.116 65.5888 241.949 65.0106 241.624C64.4325 241.298 63.9516 240.827 63.6167 240.257C63.2819 239.687 63.1051 239.039 63.1045 238.379V79.796C63.1044 77.9907 63.5798 76.2168 64.4835 74.6505C65.3871 73.0842 66.6875 71.78 68.2556 70.8673L141.662 28.1192C142.232 27.7888 142.88 27.6134 143.541 27.6107C144.201 27.6081 144.85 27.7783 145.423 28.1041C145.996 28.4299 146.472 28.8999 146.804 29.4668C147.136 30.0337 147.312 30.6774 147.314 31.3332V187.97C147.315 190.083 146.765 192.161 145.719 194.001C144.673 195.84 143.165 197.38 141.343 198.47Z"
                  fill="#FAFAFA"
                />
                <path
                  d="M141.133 198.153C129.481 205.042 117.834 211.951 106.192 218.879L85.5153 231.165L76.0837 236.786L71.9556 239.251C70.6859 240.008 69.3365 241.089 67.929 241.571C65.6002 242.379 63.5034 240.527 63.4454 238.242C63.4454 237.875 63.4454 237.521 63.4454 237.14V91.7441C63.4454 87.8743 63.4454 83.9973 63.4454 80.1275C63.4187 78.2953 63.8848 76.4892 64.7953 74.8956C65.7059 73.302 67.0281 71.9786 68.6255 71.0619C70.3087 70.0746 71.9991 69.1018 73.7041 68.1217L97.399 54.2711L125.512 37.9055C130.845 34.8067 136.163 31.6792 141.473 28.5949C143.128 27.6436 145.21 27.7373 146.363 29.4596C146.771 30.1472 146.963 30.9402 146.915 31.7368V187.365C146.988 189.514 146.49 191.645 145.471 193.542C144.452 195.44 142.948 197.037 141.111 198.175C140.712 198.42 141.074 199.047 141.473 198.802C143.406 197.613 144.993 195.944 146.077 193.96C147.161 191.976 147.705 189.745 147.655 187.488V42.8202C147.655 39.0585 147.691 35.2896 147.655 31.5206C147.673 30.7661 147.485 30.0208 147.109 29.3647C146.734 28.7085 146.186 28.1662 145.524 27.7959C144.862 27.4256 144.111 27.2412 143.351 27.2627C142.592 27.2841 141.852 27.5104 141.212 27.9175C139.442 28.9336 137.686 29.9713 135.931 30.9946L111.597 45.2127L83.2299 61.7297C78.2239 64.6483 73.1454 67.5452 68.1612 70.4854C66.4832 71.4661 65.0957 72.8696 64.139 74.5538C63.1823 76.238 62.6903 78.1433 62.7126 80.0771C62.7126 81.3742 62.7126 82.6713 62.7126 83.9685V237.63C62.7126 237.875 62.7126 238.127 62.7126 238.35C62.7205 238.995 62.8798 239.628 63.1779 240.201C63.4761 240.773 63.9047 241.269 64.4298 241.647C64.9548 242.026 65.5617 242.278 66.202 242.382C66.8423 242.487 67.4983 242.441 68.1177 242.249C69.4889 241.795 70.7803 240.772 72.0136 240.036L76.2216 237.521L85.6531 231.915C99.37 223.748 113.099 215.595 126.84 207.457L141.517 198.758C141.894 198.542 141.532 197.915 141.133 198.153Z"
                  fill="#EBEBEB"
                />
                <path
                  d="M68.2265 70.8457L141.662 28.1192C142.232 27.7888 142.88 27.6134 143.541 27.6107C144.201 27.6081 144.85 27.7783 145.423 28.1041C145.996 28.4299 146.472 28.8999 146.804 29.4668C147.136 30.0337 147.312 30.6774 147.314 31.3332V38.2153L63.0972 86.4979V79.7816C63.0936 77.9772 63.5652 76.2032 64.4649 74.6358C65.3647 73.0683 66.6614 71.7617 68.2265 70.8457Z"
                  fill="#EBEBEB"
                />
                <path
                  d="M118.678 108.36C126.125 95.5482 126.125 81.7005 118.679 77.43C111.232 73.1595 99.1583 80.0834 91.7115 92.8949C84.2648 105.706 84.2648 119.554 91.7115 123.825C99.1582 128.095 111.232 121.171 118.678 108.36Z"
                  fill="#FF0000"
                />
                <path
                  opacity="0.5"
                  d="M118.678 108.36C126.125 95.5482 126.125 81.7005 118.679 77.43C111.232 73.1595 99.1583 80.0834 91.7115 92.8949C84.2648 105.706 84.2648 119.554 91.7115 123.825C99.1582 128.095 111.232 121.171 118.678 108.36Z"
                  fill="white"
                />
                <path
                  d="M101.774 100.709C101.662 100.709 101.55 100.687 101.446 100.644C101.343 100.601 101.248 100.539 101.169 100.46C101.089 100.381 101.026 100.287 100.983 100.184C100.94 100.081 100.918 99.9701 100.918 99.8584V94.2591C100.981 92.9306 101.362 91.6363 102.031 90.4842C102.7 89.3321 103.637 88.3557 104.763 87.6364C105.219 87.2633 105.779 87.0373 106.367 86.9885C106.956 86.9397 107.546 87.0706 108.058 87.3635C108.569 87.6565 108.979 88.0977 109.232 88.628C109.484 89.1584 109.568 89.7527 109.472 90.3316V95.9382C109.472 96.1637 109.381 96.38 109.221 96.5394C109.06 96.6989 108.843 96.7885 108.616 96.7885C108.389 96.7885 108.171 96.6989 108.01 96.5394C107.85 96.38 107.759 96.1637 107.759 95.9382V90.3028C107.873 90.0212 107.88 89.7083 107.778 89.4222C107.677 89.136 107.475 88.896 107.21 88.7465C106.944 88.597 106.633 88.5482 106.334 88.609C106.035 88.6699 105.768 88.8364 105.583 89.0777C104.72 89.6506 104.001 90.4134 103.482 91.307C102.964 92.2007 102.66 93.201 102.594 94.2302V99.8296C102.602 100.054 102.52 100.272 102.366 100.437C102.213 100.602 102 100.699 101.774 100.709Z"
                  fill="#37474F"
                />
                <path
                  d="M112.105 92.3278C111.905 92.2453 111.686 92.2145 111.471 92.2385C111.255 92.2624 111.049 92.3403 110.872 92.4648L99.4669 99.0081C98.9667 99.32 98.5527 99.751 98.2626 100.262C97.8063 100.998 97.5558 101.841 97.5371 102.705V112.513C97.5115 112.788 97.5492 113.065 97.6472 113.323C97.7452 113.582 97.9011 113.815 98.103 114.005C98.1647 114.053 98.2331 114.091 98.3061 114.12C98.4993 114.191 98.7069 114.215 98.9115 114.19C99.1161 114.165 99.3116 114.092 99.4814 113.976L110.872 107.425C111.466 107.004 111.952 106.45 112.291 105.808C112.63 105.166 112.813 104.453 112.823 103.728V93.906C112.864 93.6026 112.818 93.2941 112.691 93.0153C112.564 92.7365 112.361 92.4984 112.105 92.3278Z"
                  fill="#FF0000"
                />
                <path
                  d="M106.519 102.554L107.621 105.696L103.754 107.908L104.719 104.031L104.857 103.483C104.204 103.483 103.754 103.001 103.754 102.121C103.759 101.763 103.821 101.408 103.936 101.069C104.237 100.133 104.855 99.3283 105.684 98.792C106.751 98.1795 107.621 98.6767 107.621 99.9018C107.568 100.885 107.179 101.82 106.519 102.554Z"
                  fill="#455A64"
                />
                <path
                  d="M104.691 103.995L104.828 103.447C104.175 103.447 103.726 102.964 103.726 102.085C103.731 101.727 103.792 101.372 103.907 101.033L106.519 102.553L107.622 105.695L104.691 103.995Z"
                  fill="#37474F"
                />
                <path
                  d="M133.363 136.899L77.0633 169.162C74.7345 170.495 72.8481 169.075 72.8481 165.998V157.531C72.8481 154.447 74.7345 150.865 77.0633 149.532L133.363 117.269C135.691 115.936 137.578 117.348 137.578 120.433V128.9C137.541 131.984 135.655 135.559 133.363 136.899Z"
                  fill="#FF0000"
                />
                <path
                  d="M87.1913 148.768H86.103V157.726H87.1913V148.768Z"
                  fill="#FAFAFA"
                />
                <path
                  d="M90.7485 151.328L82.9028 155.806L83.447 156.747L91.2927 152.268L90.7485 151.328Z"
                  fill="#FAFAFA"
                />
                <path
                  d="M84.153 151.205L83.6089 152.141L89.1317 155.308L89.6758 154.372L84.153 151.205Z"
                  fill="#FAFAFA"
                />
                <path
                  d="M89.7103 147.729L84.1855 157.278L85.1323 157.818L90.6571 148.27L89.7103 147.729Z"
                  fill="#FAFAFA"
                />
                <path
                  d="M105.743 138.737H104.654V147.694H105.743V138.737Z"
                  fill="#FAFAFA"
                />
                <path
                  d="M108.818 140.524L101.008 145.002L101.552 145.939L109.362 141.46L108.818 140.524Z"
                  fill="#FAFAFA"
                />
                <path
                  d="M102.704 141.171L102.16 142.107L107.683 145.274L108.227 144.338L102.704 141.171Z"
                  fill="#FAFAFA"
                />
                <path
                  d="M108.215 137.618L102.69 147.167L103.637 147.707L109.161 138.158L108.215 137.618Z"
                  fill="#FAFAFA"
                />
                <path
                  d="M124.286 128.698H123.198V137.656H124.286V128.698Z"
                  fill="#FAFAFA"
                />
                <path
                  d="M128.008 131.172L120.163 135.651L120.707 136.591L128.552 132.112L128.008 131.172Z"
                  fill="#FAFAFA"
                />
                <path
                  d="M121.257 131.133L120.712 132.069L126.235 135.236L126.779 134.3L121.257 131.133Z"
                  fill="#FAFAFA"
                />
                <path
                  d="M126.034 128.146L120.51 137.651L121.452 138.191L126.977 128.686L126.034 128.146Z"
                  fill="#FAFAFA"
                />
                <path
                  d="M134.995 148.559C135.72 148.559 136.09 149.676 136.09 150.786V159.253C136.09 161.826 134.487 164.917 132.601 166.006L76.3378 198.268C76.0522 198.449 75.7254 198.556 75.3874 198.578C74.6619 198.578 74.2992 197.461 74.2992 196.351V187.884C74.2992 185.311 75.8953 182.22 77.7888 181.132L134.088 148.869C134.371 148.688 134.696 148.582 135.031 148.559M135.031 147.118C134.44 147.139 133.865 147.313 133.363 147.622L77.0633 179.885C74.7345 181.218 72.8481 184.8 72.8481 187.884V196.351C72.8481 198.643 73.8929 200.02 75.3874 200.02C75.9807 199.999 76.5584 199.825 77.0633 199.515L133.363 167.252C135.691 165.919 137.578 162.337 137.578 159.253V150.786C137.578 148.494 136.526 147.118 135.031 147.118Z"
                  fill="#FF0000"
                />
                <path
                  d="M93.9093 182.58C93.5413 182.814 93.1192 182.95 92.6832 182.977C92.5288 182.981 92.3755 182.95 92.2356 182.884C92.0958 182.819 91.9732 182.723 91.8779 182.602C91.665 182.296 91.5626 181.928 91.5877 181.557C91.5911 181.087 91.6873 180.621 91.8706 180.188C92.0569 179.725 92.3192 179.297 92.6469 178.919C92.9588 178.542 93.3374 178.225 93.7642 177.983C94.0844 177.779 94.4514 177.66 94.8307 177.637C94.9774 177.632 95.1231 177.662 95.2556 177.725C95.3881 177.788 95.5036 177.881 95.5925 177.997C95.8049 178.33 95.9041 178.721 95.8754 179.114C95.8754 179.172 95.8754 179.236 95.8754 179.316C95.8793 179.385 95.8793 179.455 95.8754 179.525L92.734 181.319V180.483L95.1282 179.107L94.5985 179.647C94.6166 179.481 94.5837 179.312 94.5042 179.164C94.4745 179.113 94.4325 179.07 94.3819 179.038C94.3312 179.007 94.2736 178.988 94.214 178.984C94.0595 178.978 93.907 179.021 93.7787 179.107C93.6099 179.202 93.4618 179.329 93.3434 179.481C93.2187 179.637 93.1207 179.813 93.0532 180C92.9866 180.193 92.9523 180.395 92.9516 180.598V180.844C92.9407 181.02 92.9837 181.196 93.075 181.348C93.1133 181.404 93.1655 181.449 93.2264 181.479C93.2874 181.51 93.3551 181.524 93.4232 181.521C93.6148 181.508 93.7997 181.446 93.9601 181.341C94.1455 181.239 94.3143 181.111 94.4607 180.959C94.6158 180.795 94.7543 180.616 94.8742 180.426L95.5997 180.88C95.4019 181.227 95.1579 181.547 94.8742 181.831C94.5867 182.121 94.2623 182.373 93.9093 182.58Z"
                  fill="#FF0000"
                />
                <path
                  d="M100.555 174.084C100.804 173.928 101.089 173.839 101.382 173.824C101.5 173.82 101.616 173.847 101.72 173.903C101.823 173.958 101.91 174.041 101.97 174.142C102.138 174.455 102.214 174.81 102.187 175.165V177.759L100.802 178.552V176.217C100.802 175.89 100.744 175.689 100.628 175.612C100.519 175.525 100.359 175.547 100.149 175.662C99.9955 175.752 99.8602 175.869 99.7497 176.008C99.6234 176.156 99.5273 176.328 99.4668 176.512C99.3977 176.729 99.3634 176.955 99.3652 177.183V179.345L97.9795 180.144V175.612L99.2999 174.848V176.138L99.046 175.907C99.1855 175.509 99.3942 175.138 99.6627 174.812C99.9144 174.519 100.217 174.272 100.555 174.084Z"
                  fill="#FF0000"
                />
                <path
                  d="M104.096 173.486V172.297L106.998 170.654V171.843L104.096 173.486ZM106.272 175.489C106.107 175.617 105.914 175.705 105.709 175.747C105.504 175.79 105.293 175.785 105.09 175.734C104.807 175.612 104.669 175.259 104.669 174.675V170.783L106.055 169.991V173.897C106.055 174.062 106.055 174.163 106.171 174.214C106.287 174.264 106.345 174.25 106.468 174.178C106.635 174.082 106.778 173.952 106.889 173.796L107.237 174.711C107.111 174.877 106.965 175.027 106.802 175.158C106.636 175.28 106.461 175.391 106.279 175.489H106.272Z"
                  fill="#FF0000"
                />
                <path
                  d="M111.191 172.672C110.823 172.905 110.401 173.042 109.965 173.068C109.81 173.073 109.657 173.042 109.517 172.977C109.377 172.911 109.255 172.814 109.16 172.693C108.947 172.387 108.844 172.019 108.869 171.648C108.873 171.178 108.969 170.713 109.152 170.279C109.337 169.814 109.6 169.382 109.929 169.003C110.242 168.632 110.617 168.318 111.039 168.074C111.36 167.873 111.726 167.754 112.105 167.728C112.253 167.723 112.4 167.754 112.533 167.816C112.667 167.879 112.784 167.972 112.874 168.088C113.087 168.421 113.186 168.812 113.157 169.205C113.157 169.263 113.157 169.328 113.157 169.407C113.157 169.486 113.157 169.551 113.157 169.616L110.03 171.41V170.574L112.417 169.198L111.895 169.731C111.908 169.567 111.876 169.402 111.8 169.256C111.768 169.204 111.725 169.161 111.673 169.128C111.622 169.096 111.564 169.075 111.503 169.068C111.348 169.064 111.195 169.11 111.068 169.198C110.902 169.295 110.757 169.422 110.64 169.573C110.512 169.727 110.414 169.903 110.349 170.092C110.283 170.284 110.249 170.486 110.248 170.69V170.935C110.236 171.111 110.276 171.286 110.364 171.439C110.402 171.495 110.454 171.541 110.515 171.571C110.576 171.601 110.644 171.615 110.712 171.612C110.906 171.6 111.094 171.538 111.256 171.432C111.438 171.329 111.605 171.2 111.75 171.05C111.905 170.887 112.044 170.708 112.163 170.517L112.889 170.971C112.499 171.683 111.916 172.273 111.206 172.672H111.191Z"
                  fill="#FF0000"
                />
                <path
                  d="M115.225 170.293V165.753L116.552 164.997V166.323L116.349 166.056C116.463 165.658 116.658 165.288 116.922 164.968C117.187 164.643 117.509 164.369 117.873 164.161V165.602L117.713 165.674L117.561 165.753C117.283 165.914 117.049 166.139 116.879 166.409C116.719 166.718 116.649 167.065 116.676 167.411V169.493L115.225 170.293Z"
                  fill="#FF0000"
                />
                <path
                  d="M217.804 52.3325C217.837 52.9027 218.006 53.4569 218.298 53.9493C218.589 54.4417 218.994 54.8583 219.48 55.1646C220.408 55.6835 221.156 55.2583 221.156 54.2206C221.122 53.6504 220.953 53.0962 220.661 52.6038C220.37 52.1114 219.965 51.6948 219.48 51.3885C218.558 50.8696 217.804 51.2876 217.804 52.3325Z"
                  fill="#455A64"
                />
                <path
                  d="M195.335 59.0417C193.86 58.9929 192.422 58.5659 191.163 57.8022L185.845 54.8116C185.801 54.7899 185.761 54.7595 185.729 54.7223C185.697 54.685 185.673 54.6416 185.659 54.5948C185.644 54.548 185.639 54.4988 185.645 54.4501C185.65 54.4014 185.665 54.3543 185.689 54.3116C185.713 54.2689 185.746 54.2316 185.785 54.2019C185.825 54.1722 185.869 54.1507 185.917 54.1389C185.965 54.127 186.015 54.1249 186.064 54.1328C186.112 54.1406 186.159 54.1583 186.2 54.1846L191.518 57.1753C193.818 58.4652 195.944 58.6742 197.518 57.7662C199.093 56.8582 199.912 54.9917 199.912 52.4623C199.912 49.6734 200.892 47.5692 202.662 46.5387C204.432 45.5082 206.863 45.7027 209.388 47.1224L217.985 51.9579C218.067 52.0061 218.127 52.084 218.153 52.1754C218.179 52.2667 218.168 52.3643 218.123 52.4479C218.075 52.5309 217.997 52.592 217.904 52.6176C217.812 52.6433 217.713 52.6315 217.629 52.5848L209.032 47.7854C206.739 46.4954 204.606 46.2865 203.032 47.2017C201.458 48.1169 200.638 49.9761 200.638 52.4983C200.638 55.2944 199.659 57.3987 197.888 58.422C197.108 58.8502 196.226 59.0641 195.335 59.0417Z"
                  fill="#455A64"
                />
                <path
                  d="M183.646 53.1973C183.672 53.6581 183.809 54.1061 184.045 54.5037C184.281 54.9012 184.609 55.2366 185.003 55.4817C185.729 55.9068 186.36 55.5609 186.36 54.7178C186.334 54.2569 186.198 53.8089 185.962 53.4114C185.726 53.0139 185.397 52.6785 185.003 52.4334C184.256 52.0082 183.646 52.3541 183.646 53.1973Z"
                  fill="#455A64"
                />
                <path
                  d="M217.804 115.323C217.838 115.892 218.008 116.445 218.299 116.936C218.591 117.427 218.995 117.843 219.48 118.148C220.408 118.674 221.156 118.249 221.156 117.211C221.122 116.641 220.953 116.087 220.661 115.595C220.37 115.102 219.965 114.686 219.48 114.379C218.558 113.853 217.804 114.278 217.804 115.323Z"
                  fill="#455A64"
                />
                <path
                  d="M217.869 116.109C217.806 116.108 217.744 116.093 217.688 116.066L209.098 111.201C204.07 108.376 199.978 101.465 199.978 95.8085C199.978 90.3749 196.053 83.7522 191.229 81.0354L185.845 78.0088C185.762 77.9618 185.7 77.8839 185.675 77.792C185.649 77.7002 185.661 77.6019 185.708 77.5187C185.73 77.4769 185.761 77.44 185.799 77.4104C185.836 77.3807 185.879 77.3588 185.925 77.346C185.971 77.3333 186.019 77.3298 186.067 77.336C186.114 77.3421 186.16 77.3577 186.201 77.3818L191.584 80.4085C196.612 83.2406 200.704 90.1443 200.704 95.8085C200.704 101.235 204.629 107.857 209.453 110.574L218.051 115.417C218.134 115.464 218.196 115.542 218.221 115.634C218.247 115.726 218.235 115.824 218.188 115.907C218.158 115.966 218.112 116.015 218.056 116.05C218 116.086 217.936 116.106 217.869 116.109Z"
                  fill="#455A64"
                />
                <path
                  d="M183.646 76.2793C183.674 76.7406 183.812 77.1887 184.048 77.587C184.283 77.9853 184.611 78.3225 185.003 78.5709C185.729 78.9889 186.36 78.6502 186.36 77.8071C186.332 77.3458 186.195 76.8977 185.959 76.4993C185.723 76.101 185.395 75.7638 185.003 75.5154C184.256 75.0975 183.646 75.4362 183.646 76.2793Z"
                  fill="#455A64"
                />
                <path
                  d="M269.459 45.537L233.91 25.5466C233.536 25.2744 233.085 25.1276 232.622 25.1276C232.159 25.1276 231.707 25.2744 231.334 25.5466L228.258 27.6508L230.355 30.2235V67.4299C230.355 70.0314 231.951 73.0509 233.91 74.1823L268.567 93.6394L268.726 96.4066L271.962 94.2015C272.335 93.8561 272.624 93.4302 272.805 92.9567C272.986 92.4831 273.055 91.9746 273.007 91.4703V52.2894C273.022 49.6879 271.425 46.6684 269.459 45.537Z"
                  fill="#FF0000"
                />
                <path
                  opacity="0.3"
                  d="M269.459 45.537L233.91 25.5466C233.536 25.2744 233.085 25.1276 232.622 25.1276C232.159 25.1276 231.707 25.2744 231.334 25.5466L228.258 27.6508L230.355 30.2235V67.4299C230.355 70.0314 231.951 73.0509 233.91 74.1823L268.567 93.6394L268.726 96.4066L271.962 94.2015C272.335 93.8561 272.624 93.4302 272.805 92.9567C272.986 92.4831 273.055 91.9746 273.007 91.4703V52.2894C273.022 49.6879 271.425 46.6684 269.459 45.537Z"
                  fill="black"
                />
                <path
                  d="M266.442 96.2336L230.892 76.2432C228.926 75.119 227.337 72.0923 227.337 69.4909V30.2883C227.337 27.6796 228.926 26.4833 230.892 27.6147L266.442 47.6052C268.408 48.7294 269.997 51.756 269.997 54.3575V93.5673C269.997 96.1688 268.408 97.365 266.442 96.2336Z"
                  fill="#FF0000"
                />
                <path
                  d="M258.976 62.3062C258.895 62.3073 258.816 62.2817 258.752 62.2334C258.688 62.1852 258.641 62.1169 258.62 62.0395C257.863 59.2592 256.691 56.6069 255.145 54.1702C255.093 54.0899 255.076 53.9925 255.096 53.8992C255.117 53.806 255.173 53.7247 255.254 53.673C255.294 53.6468 255.339 53.629 255.387 53.6207C255.434 53.6123 255.482 53.6136 255.529 53.6244C255.576 53.6351 255.62 53.6552 255.659 53.6834C255.698 53.7116 255.73 53.7472 255.755 53.7883C257.342 56.2845 258.546 59.0025 259.324 61.8522C259.347 61.9448 259.333 62.0425 259.286 62.1255C259.239 62.2085 259.162 62.2705 259.07 62.299L258.976 62.3062Z"
                  fill="white"
                />
                <path
                  d="M259.789 69.6349C259.692 69.6275 259.602 69.5825 259.539 69.5097C259.475 69.4369 259.442 69.3421 259.448 69.2457C259.448 68.8638 259.492 68.4603 259.492 68.0495C259.488 66.8174 259.379 65.5879 259.165 64.3743C259.149 64.2787 259.172 64.1806 259.228 64.1015C259.284 64.0225 259.37 63.9689 259.466 63.9527C259.563 63.9364 259.661 63.9588 259.741 64.0149C259.821 64.071 259.875 64.1562 259.891 64.2518C260.113 65.5058 260.227 66.7763 260.232 68.0495C260.232 68.4747 260.232 68.8926 260.188 69.2962C260.185 69.3445 260.171 69.3916 260.149 69.4348C260.127 69.4781 260.097 69.5165 260.06 69.548C260.023 69.5795 259.98 69.6033 259.933 69.6183C259.887 69.6332 259.838 69.6388 259.789 69.6349Z"
                  fill="white"
                />
                <path
                  d="M237.596 57.6724C237.506 57.6727 237.42 57.6395 237.354 57.5794C237.288 57.5193 237.248 57.4367 237.24 57.3481C237.182 56.7212 237.153 56.0942 237.153 55.4889C237.153 51.9938 238.104 49.1113 239.83 47.3601C239.864 47.3266 239.903 47.2999 239.947 47.2817C239.99 47.2635 240.037 47.2542 240.084 47.2542C240.132 47.2542 240.178 47.2635 240.222 47.2817C240.266 47.2999 240.305 47.3266 240.338 47.3601C240.372 47.3936 240.399 47.4335 240.418 47.4774C240.436 47.5213 240.446 47.5684 240.446 47.616C240.446 47.6635 240.436 47.7106 240.418 47.7545C240.399 47.7984 240.372 47.8383 240.338 47.8718C238.749 49.486 237.872 52.1956 237.872 55.4961C237.872 56.0798 237.872 56.6852 237.951 57.2905C237.956 57.3375 237.952 57.3849 237.938 57.4301C237.924 57.4753 237.901 57.5173 237.871 57.5536C237.841 57.5899 237.803 57.6197 237.761 57.6414C237.719 57.663 237.672 57.676 237.625 57.6796L237.596 57.6724Z"
                  fill="white"
                />
                <path
                  d="M253.643 51.8424C253.59 51.843 253.536 51.8317 253.487 51.8093C253.438 51.7869 253.395 51.7539 253.361 51.7127C252.016 50.0126 250.366 48.5757 248.492 47.4754C246.084 46.1206 243.82 45.8612 241.963 46.7547C241.876 46.7942 241.777 46.7982 241.688 46.7658C241.598 46.7335 241.525 46.6673 241.484 46.5818C241.463 46.5388 241.451 46.4921 241.449 46.4445C241.446 46.3968 241.453 46.3492 241.469 46.3042C241.486 46.2593 241.511 46.218 241.543 46.1828C241.575 46.1476 241.615 46.1191 241.658 46.099C243.748 45.1405 246.236 45.3783 248.862 46.8845C250.814 48.0315 252.536 49.5267 253.941 51.2948C254.001 51.3685 254.029 51.4629 254.02 51.5573C254.01 51.6518 253.964 51.7387 253.89 51.7992C253.816 51.8422 253.728 51.8576 253.643 51.8424Z"
                  fill="white"
                />
                <path
                  d="M240.099 57.9535C240.005 57.9536 239.915 57.9176 239.848 57.8531C239.78 57.7886 239.74 57.7007 239.736 57.6076C239.736 57.3842 239.736 57.1608 239.736 56.9374C239.736 54.3792 240.368 52.2893 241.565 50.8985C241.595 50.862 241.632 50.8318 241.674 50.8098C241.716 50.7878 241.762 50.7744 241.809 50.7703C241.857 50.7663 241.904 50.7717 241.95 50.7863C241.995 50.8009 242.037 50.8244 242.072 50.8553C242.146 50.918 242.191 51.0067 242.199 51.1023C242.207 51.1979 242.177 51.2929 242.116 51.3669C241.035 52.628 240.462 54.5521 240.462 56.9374C240.462 57.1464 240.462 57.3626 240.462 57.5716C240.464 57.6189 240.456 57.6661 240.44 57.7106C240.423 57.7551 240.398 57.7959 240.366 57.8307C240.334 57.8655 240.295 57.8936 240.251 57.9134C240.208 57.9333 240.161 57.9445 240.114 57.9463L240.099 57.9535Z"
                  fill="white"
                />
                <path
                  d="M242.914 50.531C242.834 50.5318 242.757 50.5064 242.693 50.4588C242.629 50.4112 242.583 50.344 242.561 50.2677C242.54 50.1914 242.544 50.1101 242.574 50.0366C242.604 49.963 242.657 49.9012 242.726 49.8608C243.655 49.3118 244.744 49.0885 245.816 49.2266C245.911 49.2358 245.999 49.2818 246.06 49.3546C246.121 49.4275 246.151 49.5213 246.143 49.6158C246.132 49.7108 246.084 49.7978 246.009 49.8583C245.935 49.9189 245.84 49.9482 245.744 49.9401C244.83 49.8319 243.905 50.0297 243.117 50.5022C243.053 50.5289 242.983 50.5388 242.914 50.531Z"
                  fill="white"
                />
                <path
                  d="M258.977 74.2686C258.904 74.2688 258.833 74.2476 258.772 74.2079C258.712 74.1682 258.664 74.1116 258.636 74.0452L258.215 73.0003C257.371 70.9797 256.926 68.8172 256.902 66.6299C256.902 60.5189 253.129 53.4495 248.493 50.8408C248.452 50.8177 248.415 50.7865 248.386 50.7491C248.357 50.7117 248.336 50.6689 248.323 50.6232C248.311 50.5775 248.308 50.5299 248.315 50.483C248.322 50.4362 248.338 50.3913 248.362 50.3508C248.385 50.3089 248.416 50.2721 248.453 50.2424C248.491 50.2127 248.534 50.1908 248.58 50.1781C248.626 50.1653 248.674 50.1619 248.721 50.168C248.769 50.1742 248.815 50.1897 248.856 50.2138C253.688 52.9378 257.627 60.3027 257.627 66.6011C257.646 68.7047 258.074 70.7849 258.89 72.7265L259.31 73.7714C259.329 73.8148 259.339 73.8616 259.339 73.9089C259.34 73.9562 259.331 74.0031 259.312 74.0468C259.294 74.0905 259.267 74.1301 259.233 74.1633C259.199 74.1964 259.159 74.2225 259.114 74.2398C259.071 74.2591 259.024 74.2689 258.977 74.2686Z"
                  fill="white"
                />
                <path
                  d="M242.319 70.1249C242.245 70.1249 242.172 70.102 242.111 70.0595C242.05 70.0169 242.004 69.9567 241.978 69.8871C240.806 66.4819 240.049 62.9497 239.722 59.3658C239.718 59.3179 239.724 59.2697 239.739 59.224C239.754 59.1783 239.778 59.1361 239.81 59.0998C239.842 59.0636 239.88 59.034 239.924 59.0129C239.967 58.9917 240.015 58.9794 240.063 58.9767C240.158 58.9744 240.251 59.0081 240.322 59.0709C240.394 59.1338 240.438 59.2211 240.447 59.3154C240.757 62.8314 241.487 66.2981 242.624 69.6421C242.641 69.6865 242.649 69.7339 242.647 69.7814C242.646 69.8289 242.634 69.8757 242.614 69.9187C242.594 69.9618 242.565 70.0004 242.529 70.0321C242.493 70.0638 242.452 70.088 242.406 70.1033C242.378 70.1143 242.349 70.1215 242.319 70.1249Z"
                  fill="white"
                />
                <path
                  d="M256.843 76.6972C256.769 76.6988 256.697 76.6774 256.636 76.6361C256.575 76.5947 256.528 76.5355 256.502 76.4666L255.53 73.8723C254.55 71.3402 254.022 68.6577 253.97 65.9453V63.1132C253.97 59.7479 251.54 55.6475 248.551 53.9684C247.158 53.1829 245.866 53.046 244.923 53.5936C243.98 54.1413 243.472 55.2727 243.472 56.8077V59.3155C243.552 63.3893 244.373 67.4153 245.895 71.1988L247.093 74.2975C247.11 74.3419 247.118 74.3894 247.117 74.4371C247.116 74.4848 247.106 74.5318 247.086 74.5754C247.066 74.619 247.038 74.6583 247.003 74.691C246.968 74.7237 246.927 74.7491 246.882 74.7659C246.793 74.7987 246.694 74.7952 246.607 74.7561C246.52 74.717 246.452 74.6454 246.418 74.5569L245.221 71.4582C243.675 67.5901 242.844 63.4766 242.769 59.3155V56.8149C242.769 55.0133 243.4 53.6513 244.561 52.9811C245.721 52.3109 247.281 52.4334 248.914 53.3486C252.099 55.143 254.718 59.5245 254.718 63.1204V65.9526C254.768 68.5792 255.281 71.1767 256.234 73.6273L257.199 76.2144C257.216 76.2583 257.225 76.3053 257.223 76.3525C257.222 76.3997 257.211 76.4461 257.192 76.4891C257.172 76.5321 257.144 76.5708 257.109 76.6028C257.074 76.6349 257.033 76.6596 256.988 76.6756L256.843 76.6972Z"
                  fill="white"
                />
                <path
                  d="M253.644 77.7276C253.567 77.7281 253.491 77.7038 253.428 77.6584C253.366 77.6131 253.319 77.5489 253.296 77.4754L252.788 75.7747C251.863 72.7896 251.375 69.688 251.337 66.565V62.1979C251.281 61.2087 250.988 60.247 250.484 59.3924C249.979 58.5378 249.277 57.8148 248.435 57.2832C248.173 57.0922 247.864 56.973 247.541 56.9376C247.218 56.9022 246.89 56.9518 246.592 57.0814C246.338 57.2652 246.136 57.5126 246.009 57.7987C245.881 58.0847 245.832 58.3991 245.867 58.7101C245.867 63.5816 247.361 69.1953 250.068 74.5208L251.091 76.5314C251.112 76.5739 251.125 76.6203 251.128 76.6678C251.132 76.7153 251.126 76.763 251.11 76.8082C251.095 76.8533 251.071 76.8951 251.04 76.9311C251.008 76.967 250.97 76.9965 250.927 77.0178C250.884 77.0391 250.838 77.0518 250.79 77.0552C250.742 77.0585 250.694 77.0525 250.649 77.0375C250.603 77.0224 250.561 76.9986 250.525 76.9674C250.489 76.9362 250.459 76.8982 250.438 76.8556L249.422 74.8451C246.658 69.4187 245.141 63.6896 245.141 58.7101C245.101 58.273 245.179 57.8331 245.368 57.4363C245.556 57.0395 245.849 56.7004 246.215 56.4545C246.622 56.2596 247.073 56.1756 247.523 56.211C247.973 56.2465 248.406 56.4001 248.776 56.6562C249.727 57.2547 250.521 58.0694 251.093 59.033C251.664 59.9966 251.997 61.0815 252.063 62.1979V66.5794C252.096 69.634 252.572 72.6679 253.477 75.5873L253.985 77.2808C254 77.3262 254.005 77.3741 254 77.4214C253.995 77.4688 253.981 77.5147 253.958 77.5565C253.935 77.5982 253.904 77.6349 253.866 77.6643C253.828 77.6937 253.785 77.7152 253.739 77.7276C253.708 77.7336 253.675 77.7336 253.644 77.7276Z"
                  fill="white"
                />
                <path
                  d="M249.573 70.1249C249.491 70.124 249.411 70.0959 249.347 70.045C249.283 69.9941 249.237 69.9233 249.218 69.8439L248.884 68.3017C248.565 66.8189 248.405 65.3068 248.405 63.7905V59.7334C248.405 59.6378 248.443 59.5461 248.512 59.4786C248.58 59.411 248.672 59.373 248.768 59.373C248.864 59.373 248.956 59.411 249.025 59.4786C249.093 59.5461 249.131 59.6378 249.131 59.7334V63.7905C249.135 65.2439 249.291 66.6928 249.595 68.1144L249.929 69.6565C249.939 69.7024 249.941 69.75 249.933 69.7965C249.924 69.8429 249.907 69.8872 249.881 69.9268C249.856 69.9665 249.822 70.0006 249.783 70.0272C249.744 70.0538 249.7 70.0723 249.653 70.0817L249.573 70.1249Z"
                  fill="white"
                />
                <path
                  d="M238.387 62.3062C238.297 62.3051 238.211 62.2715 238.144 62.2119C238.077 62.1522 238.035 62.0705 238.024 61.9819L237.814 59.8776C237.806 59.7824 237.835 59.6877 237.896 59.6137C237.957 59.5397 238.045 59.4922 238.14 59.4813C238.188 59.4753 238.237 59.479 238.283 59.4923C238.329 59.5055 238.373 59.528 238.41 59.5583C238.447 59.5887 238.478 59.6262 238.5 59.6687C238.522 59.7112 238.536 59.7578 238.539 59.8056L238.75 61.9098C238.755 61.9572 238.75 62.0051 238.737 62.0507C238.723 62.0963 238.7 62.1388 238.67 62.1756C238.639 62.2125 238.602 62.243 238.56 62.2654C238.517 62.2878 238.471 62.3017 238.423 62.3062H238.387Z"
                  fill="white"
                />
                <path
                  d="M269.459 112.311L233.91 92.3134C233.536 92.0412 233.085 91.8944 232.622 91.8944C232.159 91.8944 231.707 92.0412 231.334 92.3134L228.258 94.4177L230.355 96.9904V134.197C230.355 136.798 231.951 139.818 233.91 140.949L268.567 160.406L268.726 163.173L271.962 160.976C272.335 160.629 272.624 160.202 272.805 159.727C272.986 159.252 273.055 158.743 273.007 158.237V119.035C273.021 116.455 271.425 113.435 269.459 112.311Z"
                  fill="#FF0000"
                />
                <path
                  opacity="0.3"
                  d="M269.459 112.311L233.91 92.3134C233.536 92.0412 233.085 91.8944 232.622 91.8944C232.159 91.8944 231.707 92.0412 231.334 92.3134L228.258 94.4177L230.355 96.9904V134.197C230.355 136.798 231.951 139.818 233.91 140.949L268.567 160.406L268.726 163.173L271.962 160.976C272.335 160.629 272.624 160.202 272.805 159.727C272.986 159.252 273.055 158.743 273.007 158.237V119.035C273.021 116.455 271.425 113.435 269.459 112.311Z"
                  fill="black"
                />
                <path
                  d="M266.442 163.001L230.892 143.01C228.926 141.886 227.337 138.866 227.337 136.258V97.0552C227.337 94.4537 228.926 93.2574 230.892 94.3816L266.442 114.372C268.408 115.503 269.997 118.523 269.997 121.124V160.334C269.997 162.936 268.408 164.132 266.442 163.001Z"
                  fill="#FF0000"
                />
                <path
                  d="M235.259 107.994C235.163 107.994 235.071 107.956 235.003 107.889C234.935 107.821 234.897 107.73 234.897 107.634V105.205C234.894 104.964 234.957 104.727 235.078 104.518C235.2 104.309 235.375 104.136 235.586 104.016C235.805 103.886 236.056 103.816 236.311 103.816C236.567 103.816 236.818 103.886 237.037 104.016L239.598 105.458C239.682 105.505 239.745 105.583 239.771 105.675C239.798 105.768 239.786 105.867 239.739 105.951C239.692 106.035 239.613 106.097 239.52 106.124C239.427 106.15 239.327 106.139 239.242 106.092L236.674 104.651C236.564 104.587 236.439 104.554 236.311 104.554C236.184 104.554 236.059 104.587 235.949 104.651C235.848 104.706 235.765 104.788 235.707 104.887C235.65 104.986 235.62 105.098 235.622 105.213V107.641C235.62 107.736 235.581 107.825 235.513 107.891C235.445 107.957 235.354 107.994 235.259 107.994Z"
                  fill="white"
                />
                <path
                  d="M239.38 141.41C239.319 141.41 239.26 141.395 239.206 141.367L236.812 140.02C236.239 139.692 235.764 139.221 235.434 138.652C235.104 138.084 234.931 137.44 234.933 136.784V134.543C234.933 134.447 234.971 134.355 235.039 134.288C235.107 134.22 235.199 134.182 235.295 134.182C235.392 134.182 235.484 134.22 235.552 134.288C235.62 134.355 235.658 134.447 235.658 134.543V136.784C235.66 137.316 235.805 137.837 236.076 138.296C236.347 138.754 236.737 139.132 237.203 139.393L239.598 140.74C239.666 140.78 239.719 140.841 239.749 140.914C239.778 140.987 239.783 141.068 239.763 141.144C239.742 141.22 239.697 141.287 239.635 141.335C239.572 141.383 239.495 141.41 239.416 141.41H239.38Z"
                  fill="white"
                />
                <path
                  d="M261.051 153.452C260.796 153.457 260.545 153.392 260.325 153.265L257.764 151.823C257.681 151.777 257.619 151.699 257.593 151.607C257.568 151.515 257.58 151.417 257.626 151.333C257.675 151.252 257.754 151.192 257.845 151.167C257.937 151.141 258.036 151.152 258.12 151.197L260.688 152.638C260.798 152.701 260.924 152.734 261.051 152.734C261.178 152.734 261.303 152.701 261.414 152.638C261.514 152.582 261.597 152.5 261.655 152.401C261.712 152.302 261.742 152.19 261.74 152.076V149.647C261.74 149.552 261.778 149.46 261.846 149.392C261.914 149.325 262.007 149.287 262.103 149.287C262.199 149.287 262.291 149.325 262.359 149.392C262.427 149.46 262.466 149.552 262.466 149.647V152.076C262.467 152.316 262.404 152.552 262.283 152.76C262.162 152.968 261.987 153.139 261.776 153.258C261.557 153.387 261.306 153.454 261.051 153.452Z"
                  fill="white"
                />
                <path
                  d="M262.089 123.092C261.992 123.092 261.9 123.054 261.832 122.986C261.764 122.919 261.726 122.827 261.726 122.731V120.49C261.724 119.959 261.58 119.439 261.308 118.981C261.037 118.524 260.647 118.147 260.18 117.889L257.786 116.541C257.702 116.493 257.641 116.414 257.615 116.32C257.589 116.227 257.601 116.128 257.648 116.044C257.672 116.003 257.703 115.966 257.741 115.937C257.778 115.909 257.821 115.887 257.868 115.875C257.914 115.863 257.962 115.86 258.009 115.867C258.056 115.874 258.101 115.89 258.142 115.914L260.536 117.262C261.114 117.584 261.596 118.052 261.932 118.619C262.268 119.186 262.448 119.832 262.451 120.49V122.731C262.451 122.827 262.413 122.919 262.345 122.986C262.277 123.054 262.185 123.092 262.089 123.092Z"
                  fill="white"
                />
                <path
                  d="M238.474 120.116C238.555 124.208 239.144 128.274 240.229 132.222C242.986 142.556 253.862 148.905 256.851 141.908C258.255 138.465 258.944 134.776 258.875 131.062C258.875 124.72 254.304 117.01 248.674 113.839C242.914 110.603 238.394 113.608 238.474 120.116Z"
                  fill="white"
                />
                <path
                  d="M248.311 125.888V132.676L245.344 130.471L248.311 125.888Z"
                  fill="#E0E0E0"
                />
                <path
                  d="M242.79 121.831C242.809 122.163 242.908 122.487 243.076 122.775C243.245 123.063 243.48 123.307 243.762 123.488C244.306 123.791 244.742 123.546 244.742 122.933C244.723 122.601 244.624 122.277 244.454 121.99C244.283 121.703 244.046 121.461 243.762 121.283C243.225 120.98 242.79 121.225 242.79 121.831Z"
                  fill="#E0E0E0"
                />
                <path
                  d="M251.874 127.005C251.895 127.337 251.994 127.66 252.164 127.947C252.335 128.233 252.571 128.476 252.853 128.655C253.398 128.958 253.833 128.713 253.833 128.107C253.814 127.774 253.715 127.449 253.545 127.161C253.374 126.873 253.137 126.629 252.853 126.45C252.346 126.147 251.874 126.392 251.874 127.005Z"
                  fill="#E0E0E0"
                />
                <path
                  d="M247.332 135.998L250.648 135.443C250.648 135.443 249.944 138.96 247.332 135.998Z"
                  fill="#E0E0E0"
                />
                <path
                  d="M193.855 142.333C193.855 142.333 199.144 141.979 202.14 149.28C204.005 153.82 206.275 160.81 207.726 165.494C208.167 166.908 208.177 168.42 207.757 169.841C207.336 171.261 206.503 172.526 205.361 173.478L196.14 181.168L192.854 175.208C194.77 172.668 196.878 170.276 199.158 168.052L192.854 149.28L193.855 142.333Z"
                  fill="#FFA8A7"
                />
                <path
                  d="M196.293 164.629C196.293 164.629 204.695 165.732 206.791 159.296C206.791 159.296 203.164 149.878 201.539 146.75C199.914 143.623 196.518 141.345 193.856 142.333C191.193 143.32 196.293 164.629 196.293 164.629Z"
                  fill="#FF0000"
                />
                <path
                  opacity="0.4"
                  d="M196.293 164.629C196.293 164.629 204.695 165.732 206.791 159.296C206.791 159.296 203.164 149.878 201.539 146.75C199.914 143.623 196.518 141.345 193.856 142.333C191.193 143.32 196.293 164.629 196.293 164.629Z"
                  fill="white"
                />
                <path
                  d="M190.678 249.131C190.678 249.131 186.687 245.737 185.135 245.578C183.582 245.42 180.898 248.057 183.169 252.633C183.8 253.909 186.368 255.285 187.972 257.728C189.575 260.171 191.012 262.009 193.471 261.67C195.93 261.331 196.25 259.962 196.09 258.369C195.882 256.912 195.589 255.469 195.212 254.046L190.678 249.131Z"
                  fill="#37474F"
                />
                <path
                  d="M193.579 260.942C191.047 261.288 189.56 259.393 187.906 256.878C186.252 254.363 183.611 252.936 182.958 251.624C182.696 251.099 182.483 250.551 182.319 249.988C182.44 250.91 182.72 251.805 183.146 252.633C183.778 253.909 186.346 255.285 187.949 257.728C189.553 260.171 190.989 262.008 193.449 261.67C195.335 261.418 195.959 260.546 196.075 259.436C195.756 260.185 195.066 260.747 193.579 260.942Z"
                  fill="#263238"
                />
                <path
                  d="M188.559 253.498C188.495 253.499 188.431 253.482 188.377 253.447C188.332 253.424 188.293 253.392 188.26 253.353C188.228 253.314 188.203 253.269 188.189 253.221C188.174 253.173 188.169 253.122 188.174 253.072C188.179 253.022 188.194 252.973 188.218 252.929C189.03 251.499 190.378 250.448 191.969 250.003C192.066 249.988 192.166 250.01 192.248 250.066C192.33 250.121 192.387 250.205 192.409 250.301C192.432 250.397 192.416 250.497 192.367 250.582C192.317 250.667 192.237 250.731 192.143 250.759C190.774 251.156 189.612 252.062 188.9 253.289C188.867 253.351 188.818 253.403 188.758 253.44C188.698 253.477 188.629 253.497 188.559 253.498Z"
                  fill="#EBEBEB"
                />
                <path
                  d="M187.05 252.129C186.987 252.128 186.925 252.113 186.869 252.085C186.824 252.062 186.784 252.03 186.751 251.991C186.719 251.952 186.695 251.907 186.68 251.859C186.665 251.811 186.66 251.76 186.665 251.71C186.67 251.66 186.685 251.611 186.709 251.567C187.111 250.857 187.649 250.234 188.294 249.731C188.939 249.229 189.678 248.859 190.467 248.641C190.519 248.614 190.577 248.599 190.635 248.598C190.694 248.596 190.752 248.608 190.806 248.633C190.859 248.657 190.906 248.694 190.943 248.739C190.98 248.784 191.006 248.837 191.019 248.894C191.032 248.951 191.032 249.01 191.019 249.067C191.005 249.123 190.979 249.176 190.942 249.222C190.905 249.267 190.858 249.303 190.804 249.327C190.751 249.351 190.693 249.363 190.634 249.361C189.265 249.763 188.105 250.671 187.391 251.898C187.363 251.965 187.316 252.023 187.255 252.064C187.194 252.105 187.123 252.127 187.05 252.129Z"
                  fill="#EBEBEB"
                />
                <path
                  d="M185.36 250.767C185.297 250.766 185.235 250.751 185.179 250.723C185.087 250.674 185.019 250.592 184.989 250.493C184.959 250.394 184.97 250.288 185.019 250.197C185.834 248.769 187.185 247.719 188.777 247.279C188.827 247.267 188.878 247.265 188.928 247.273C188.979 247.282 189.027 247.3 189.07 247.326C189.113 247.353 189.151 247.388 189.18 247.43C189.209 247.471 189.23 247.518 189.241 247.567C189.263 247.667 189.244 247.772 189.188 247.858C189.132 247.945 189.045 248.006 188.944 248.028C187.575 248.429 186.415 249.338 185.701 250.565C185.669 250.627 185.62 250.678 185.559 250.714C185.499 250.749 185.43 250.768 185.36 250.767Z"
                  fill="#EBEBEB"
                />
                <path
                  d="M169.442 260.265C169.442 260.265 164.095 258.542 162.499 259.018C160.902 259.493 159.343 263.198 163.478 266.794C164.624 267.788 167.729 268.105 170.327 269.863C172.924 271.622 175.101 272.84 177.393 271.506C179.686 270.173 179.497 268.624 179.084 266.981C178.568 264.862 178.148 263.32 178.148 263.32L169.442 260.265Z"
                  fill="#37474F"
                />
                <path
                  d="M177.219 270.736C174.861 272.112 172.605 270.851 169.964 269.035C167.323 267.219 164.088 266.873 162.905 265.871C162.426 265.458 161.987 265.002 161.592 264.509C162.093 265.375 162.741 266.148 163.507 266.794C164.653 267.788 167.759 268.105 170.356 269.864C172.953 271.622 175.13 272.84 177.422 271.507C179.171 270.491 179.432 269.345 179.091 268.228C179.069 269.1 178.576 269.943 177.219 270.736Z"
                  fill="#263238"
                />
                <path
                  d="M168.187 265.172H168.15C168.048 265.161 167.953 265.111 167.888 265.031C167.823 264.951 167.792 264.849 167.802 264.747C168.012 263.012 168.908 261.431 170.291 260.351C170.332 260.322 170.378 260.301 170.427 260.289C170.476 260.278 170.527 260.276 170.577 260.284C170.627 260.292 170.675 260.31 170.718 260.336C170.761 260.362 170.798 260.397 170.828 260.438C170.888 260.521 170.912 260.624 170.896 260.726C170.88 260.827 170.824 260.918 170.74 260.978C169.545 261.936 168.765 263.314 168.564 264.826C168.555 264.92 168.512 265.007 168.442 265.071C168.372 265.135 168.281 265.171 168.187 265.172Z"
                  fill="#EBEBEB"
                />
                <path
                  d="M170.363 265.885C170.262 265.875 170.169 265.825 170.104 265.747C170.039 265.669 170.007 265.569 170.015 265.468C170.228 263.731 171.122 262.149 172.503 261.064C172.588 261.006 172.693 260.982 172.795 261C172.897 261.017 172.988 261.074 173.048 261.158C173.077 261.199 173.097 261.246 173.108 261.295C173.12 261.344 173.121 261.395 173.112 261.444C173.103 261.494 173.085 261.541 173.057 261.584C173.03 261.626 172.995 261.663 172.953 261.691C171.755 262.647 170.975 264.026 170.777 265.54C170.767 265.64 170.719 265.732 170.641 265.797C170.564 265.862 170.464 265.893 170.363 265.885Z"
                  fill="#EBEBEB"
                />
                <path
                  d="M166.126 264.43H166.09C165.988 264.419 165.895 264.369 165.83 264.291C165.765 264.213 165.733 264.113 165.741 264.012C165.951 262.275 166.846 260.691 168.23 259.609C168.314 259.55 168.418 259.526 168.519 259.543C168.62 259.56 168.711 259.616 168.77 259.699C168.83 259.782 168.854 259.885 168.837 259.986C168.82 260.087 168.763 260.177 168.68 260.236C167.481 261.191 166.701 262.57 166.503 264.084C166.494 264.178 166.451 264.265 166.381 264.329C166.312 264.392 166.221 264.429 166.126 264.43Z"
                  fill="#EBEBEB"
                />
                <path
                  d="M195.466 250.14C195.945 244.879 196.982 236.635 197.417 232.78C198.004 227.907 197.862 222.975 196.997 218.144C196.774 217.005 196.718 215.84 196.83 214.685C197.882 204.207 198.564 187.221 197.983 183.488L183.176 186.601C183.176 186.601 184.99 210.433 185.788 218.36C186.586 226.287 189.56 250.212 189.56 250.212C190.444 250.774 191.474 251.066 192.524 251.054C193.573 251.041 194.596 250.723 195.466 250.14Z"
                  fill="#455A64"
                />
                <path
                  d="M193.333 255.552C193.742 255.457 194.124 255.272 194.451 255.01C194.777 254.747 195.04 254.415 195.22 254.038C195.22 253.21 195.314 251.826 195.466 250.14C194.596 250.723 193.574 251.041 192.524 251.053C191.475 251.066 190.445 250.774 189.561 250.212L190.083 254.636C190.518 255.026 191.038 255.31 191.601 255.469C192.164 255.628 192.757 255.656 193.333 255.552Z"
                  fill="#FFA8A7"
                />
                <path
                  d="M178.808 259.393C179.41 251.422 180.578 235.994 180.731 233.565C180.844 230.886 180.674 228.202 180.223 225.559C179.961 224.129 179.961 222.664 180.223 221.235L186.752 185.362L168.854 185.102L167.686 222.683C167.673 223.165 167.692 223.646 167.744 224.125L171.538 259.155C171.538 259.155 175.239 262.246 178.808 259.393Z"
                  fill="#455A64"
                />
                <path
                  d="M175.819 265.965C176.375 265.901 176.907 265.7 177.366 265.38C177.824 265.061 178.195 264.632 178.445 264.134L178.808 259.393C175.238 262.275 171.553 259.169 171.553 259.169L172.119 264.415C172.119 264.415 172.946 266.231 175.819 265.965Z"
                  fill="#FFA8A7"
                />
                <path
                  d="M177.125 144.725L172.903 146.166L168.361 167.504L168.586 186.421C168.586 186.421 171.829 188.994 184.496 188.994C191.606 188.994 196.242 186.327 197.983 183.495L196.844 172.066C196.844 172.066 197.983 160.803 197.983 155.232C197.983 149.661 198.237 145.1 193.855 142.34L189.952 142.664L177.125 144.725Z"
                  fill="#FF7474"
                />
                <path
                  opacity="0.2"
                  d="M177.125 144.725L172.903 146.166L168.361 167.504L168.586 186.421C168.586 186.421 171.829 188.994 184.496 188.994C191.606 188.994 196.242 186.327 197.983 183.495L196.844 172.066C196.844 172.066 197.983 160.803 197.983 155.232C197.983 149.661 198.237 145.1 193.855 142.34L189.952 142.664L177.125 144.725Z"
                  fill="white"
                />
                <path
                  d="M172.54 126.385L170.429 130.543C170.398 130.603 170.381 130.67 170.379 130.737C170.376 130.804 170.389 130.872 170.415 130.934C170.441 130.996 170.48 131.052 170.53 131.098C170.58 131.144 170.64 131.178 170.704 131.199L173.207 132.035L172.54 126.385Z"
                  fill="#F28F8F"
                />
                <path
                  d="M175.441 119.417C175.441 119.417 172.234 121.132 172.234 130.947C172.234 136.359 172.612 139.81 175.441 139.594C178.271 139.378 186.425 138.319 186.425 138.319V119.417H175.441Z"
                  fill="#FFA8A7"
                />
                <path
                  d="M175.442 139.63C176.436 139.551 178.09 139.371 179.795 139.169V138.167C178.239 138.827 176.613 139.31 174.948 139.609C175.112 139.628 175.277 139.635 175.442 139.63Z"
                  fill="#F28F8F"
                />
                <path
                  d="M179.359 137.749V143.925H187.87V135.249L179.359 137.749Z"
                  fill="#FFA8A7"
                />
                <path
                  d="M179.36 141.576C179.36 141.576 182.421 142.657 184.873 142.232C187.326 141.806 187.87 140.322 187.87 140.322C187.87 140.322 188.668 140.257 189.952 142.657C189.452 143.553 188.737 144.313 187.87 144.869C187.003 145.425 186.011 145.759 184.982 145.842C182.314 146.012 179.639 145.631 177.125 144.725C177.125 144.725 178.344 141.266 179.36 141.576Z"
                  fill="#FF0000"
                />
                <path
                  opacity="0.4"
                  d="M179.36 141.576C179.36 141.576 182.421 142.657 184.873 142.232C187.326 141.807 187.87 140.322 187.87 140.322C187.87 140.322 188.668 140.257 189.952 142.657C189.452 143.554 188.737 144.314 187.87 144.869C187.003 145.425 186.011 145.759 184.982 145.842C182.314 146.012 179.639 145.632 177.125 144.725C177.125 144.725 178.344 141.266 179.36 141.576Z"
                  fill="white"
                />
                <path
                  d="M160.373 159.909L158.088 163.397C158.088 163.397 152.537 160.94 148.656 159.448C146.396 158.614 144.292 157.411 142.431 155.888C142.57 154.386 142.812 152.896 143.157 151.427C143.606 149.914 143.759 148.653 142.431 149.323C141.103 149.993 140.182 152.595 140.102 152.926C140.102 152.926 132.303 145.136 131.331 145.309C130.359 145.482 130.605 146.649 132.68 149.049L134.777 151.456C134.777 151.456 129.996 154.187 130.772 157.171C131.549 160.154 137.853 161.494 137.853 161.494C137.853 161.494 156.303 175.576 160.387 173.025C164.472 170.474 170.254 163.188 170.254 163.188L160.373 159.909Z"
                  fill="#FFA8A7"
                />
                <path
                  d="M174.578 145.612C174.578 145.612 177.988 148.393 175.768 154.144C173.548 159.895 167.882 166.841 167.882 166.841C167.882 166.841 161.947 165.004 159.655 160.24L167.142 148.602C167.673 147.774 168.393 147.081 169.244 146.58C170.095 146.079 171.052 145.784 172.039 145.72C172.75 145.676 173.592 145.64 174.578 145.612Z"
                  fill="#FF0000"
                />
                <path
                  opacity="0.4"
                  d="M174.578 145.612C174.578 145.612 177.988 148.393 175.768 154.144C173.548 159.895 167.882 166.841 167.882 166.841C167.882 166.841 161.947 165.004 159.655 160.24L167.142 148.602C167.673 147.774 168.393 147.081 169.244 146.58C170.095 146.079 171.052 145.784 172.039 145.72C172.75 145.676 173.592 145.64 174.578 145.612Z"
                  fill="white"
                />
                <path
                  d="M174.245 113.622C174.245 113.622 170.878 113.176 170.022 115.474C169.485 116.916 171.197 118.026 171.197 118.026C171.197 118.026 169.021 120.051 172.264 120.677C172.208 121.023 172.239 121.377 172.355 121.708C172.47 122.039 172.667 122.336 172.926 122.573C173.186 122.81 173.5 122.979 173.842 123.066C174.183 123.153 174.541 123.154 174.883 123.07C174.883 123.07 174.506 125.232 177.343 126.017C177.343 126.017 175.892 129.808 178.605 129.858H181.122L180.107 132.784C180.107 132.784 181.993 137.295 187.87 137.295C188.514 135.925 189.241 134.594 190.046 133.31C190.772 132.409 194.399 127.79 194.399 124.129C194.399 120.468 192.984 118.299 191.018 117.817C190.396 116.471 189.424 115.315 188.203 114.466C186.223 113.14 182.058 111.958 179.708 113.586C179.708 113.586 177.625 110.87 176.182 110.87C174.738 110.87 174.245 112.347 174.245 113.622Z"
                  fill="#263238"
                />
                <path
                  d="M178.605 129.859C178.605 129.859 178.358 126.018 181.616 126.018C184.873 126.018 184.104 132.784 180.107 132.784L178.605 129.859Z"
                  fill="#FFA8A7"
                />
              </g>
              <defs>
                <clipPath id="clip0_812_4289">
                  <rect width="303" height="304" fill="white" />
                </clipPath>
              </defs>
            </svg>