<svg width="31" height="30" viewBox="0 0 31 30" fill="none" xmlns="http://www.w3.org/2000/svg">
<path d="M5.78003 27.4201C5.78003 27.4201 5.78295 24.6209 5.78295 23.5068C5.78295 21.7088 6.79242 20.0423 8.82452 19.6477C10.1028 19.3992 12.7241 18.7504 12.7855 18.7339C12.7855 18.4979 12.7937 18.2644 12.7801 18.031C12.7748 17.9929 12.762 17.9564 12.7426 17.9236C12.7232 17.8908 12.6975 17.8624 12.6671 17.8402C11.5471 17.1071 10.768 16.0979 10.3326 14.8005C10.3093 14.7302 10.1865 14.6609 10.1023 14.6524C9.74523 14.6182 9.40684 14.4722 9.13256 14.234C8.85828 13.9958 8.66124 13.6768 8.56789 13.3198C8.38138 12.5757 8.66528 11.7794 9.28908 11.3717C9.516 11.2241 9.78334 11.1422 10.0521 11.0202C10.1067 10.7782 10.0619 10.5904 9.78626 10.4092C9.09575 9.9573 9.124 8.91094 9.81743 8.45103C9.96352 8.35513 9.9903 8.26676 9.95962 8.1096C9.7439 6.99747 9.53353 5.88383 9.32121 4.77119C9.2394 4.3429 9.38208 4.15613 9.81402 4.16868C11.0382 4.19981 12.2449 4.08483 13.3873 3.60935C14.0136 3.34876 14.6091 3.00684 15.2066 2.67747C15.417 2.56199 15.587 2.53587 15.791 2.67244C17.3556 3.72684 19.077 4.20684 20.9401 4.16717C21.0531 4.16466 21.1666 4.16416 21.281 4.16717C21.6077 4.17671 21.768 4.38006 21.7051 4.71144C21.4938 5.82458 21.2834 6.93772 21.0648 8.04935C21.0278 8.23814 21.038 8.35061 21.2221 8.47462C21.8951 8.93203 21.8999 9.9809 21.2148 10.4172C20.9382 10.5935 20.9226 10.7842 20.963 11.0634C21.0482 11.0855 21.1408 11.1071 21.2318 11.1332C21.6204 11.2477 21.9585 11.4974 22.1887 11.8398C22.419 12.1822 22.5272 12.5962 22.495 13.0115C22.4614 13.4312 22.2849 13.8252 21.9968 14.1237C21.7087 14.4222 21.3275 14.6061 20.9206 14.6428C20.7682 14.6549 20.701 14.7066 20.6504 14.8577C20.2573 16.0733 19.4651 17.1093 18.4104 17.7869C18.2672 17.8808 18.2102 17.9762 18.2224 18.1449C18.2346 18.3136 18.2428 18.7038 18.2428 18.7499L19.973 19.1486C20.8091 19.3414 21.6501 19.5131 22.4804 19.73C23.9968 20.1257 25.0959 21.1017 25.1806 22.7215C25.1806 22.7657 25.22 25.8797 25.22 27.4201H5.78003ZM10.881 11.2894C10.881 12.0576 10.8147 12.8569 10.8941 13.6402C11.105 15.7213 12.6301 17.3787 14.6228 17.7829C16.5706 18.1781 18.5482 17.2216 19.5606 15.4391C20.3119 14.1176 20.1581 12.6802 20.1634 11.2642C17.0517 13.674 13.9576 13.6823 10.881 11.2894ZM20.9547 26.6067V23.8281H21.7339V26.6052H24.4214V23.0207C24.3367 23.0162 24.2753 23.0082 24.2096 23.0102C22.5281 23.0649 21.2284 21.8308 20.9898 20.3386C20.977 20.2993 20.9556 20.2636 20.9272 20.2342C20.8988 20.2049 20.8642 20.1827 20.8262 20.1694C20.4668 20.074 20.104 19.9876 19.7383 19.9213C19.6918 19.9194 19.6454 19.9288 19.6031 19.9489C19.5608 19.9689 19.5237 19.9991 19.4948 20.0368C19.3 20.3551 19.1315 20.687 18.9528 21.0134C18.5672 21.7163 18.181 22.4201 17.7943 23.1247C17.6113 23.4556 17.3926 23.4967 17.0995 23.2648C17.0172 23.2 16.9358 23.1347 16.8487 23.0639C16.8075 23.1344 16.7613 23.2015 16.7104 23.2648C16.3364 23.6589 16.313 24.0937 16.4732 24.6079C16.6773 25.2606 16.8092 25.9404 16.9719 26.6052L20.9547 26.6067ZM6.58547 23.0474V26.6062H9.29005V23.8291H10.0775V26.6067H14.0365C14.2473 25.7406 14.4572 24.884 14.6632 24.0264C14.6778 23.9652 14.687 23.8813 14.6583 23.8341C14.4981 23.5685 14.3252 23.3115 14.1528 23.0453C14.0749 23.1051 14.0228 23.1458 13.9722 23.1849C13.5383 23.5339 13.383 23.4997 13.1117 22.9961C12.5853 22.0196 12.056 21.0445 11.5354 20.0644C11.4599 19.9223 11.3859 19.8792 11.2311 19.9213C10.9034 20.0102 10.5712 20.085 10.2382 20.1508C10.0921 20.1804 10.0356 20.2452 10.0005 20.4018C9.70835 21.7258 8.93213 22.5844 7.64753 22.9123C7.31542 23.0002 6.96091 23.0027 6.58547 23.0474ZM10.1554 4.99964C10.3453 5.99379 10.5449 6.98944 10.7203 7.9896C10.7587 8.20601 10.8454 8.24617 11.0378 8.24567C13.0285 8.23864 15.0196 8.24115 17.0103 8.24115C18.0062 8.24115 19.0015 8.24115 19.9969 8.24416C20.1649 8.24416 20.2516 8.21806 20.2852 8.01421C20.3942 7.34893 20.5321 6.68818 20.6587 6.02542C20.7244 5.67948 20.7897 5.33303 20.8588 4.9655C20.7249 4.9655 20.6285 4.9655 20.532 4.9655C18.8323 4.95105 17.1674 4.46659 15.7111 3.56265C15.5577 3.46776 15.4511 3.46826 15.2992 3.56265C14.1835 4.26299 12.9357 4.70977 11.6392 4.87312C11.1527 4.93236 10.6618 4.95747 10.1554 4.99964ZM19.5391 10.6693H11.4726C13.6688 12.765 17.3332 12.774 19.5391 10.6693ZM15.5056 9.84534H20.3621C20.4509 9.84889 20.5398 9.84486 20.628 9.83329C20.7139 9.82297 20.7932 9.78053 20.8508 9.714C20.9084 9.64747 20.9404 9.56147 20.9406 9.47228C20.9513 9.38375 20.93 9.29425 20.8807 9.22095C20.8313 9.14765 20.7575 9.09572 20.6733 9.07513C20.5792 9.05116 20.4823 9.04102 20.3855 9.045C17.1319 9.045 13.8784 9.045 10.6248 9.045C10.528 9.04094 10.431 9.05125 10.337 9.07563C10.2528 9.09613 10.179 9.14808 10.1298 9.22143C10.0806 9.29479 10.0595 9.38434 10.0706 9.47278C10.0709 9.56192 10.1029 9.64785 10.1605 9.7143C10.2181 9.78075 10.2974 9.82308 10.3833 9.83329C10.4716 9.84512 10.5607 9.84915 10.6496 9.84534H15.5056ZM15.4569 20.8577C15.4781 20.8486 15.4983 20.8373 15.5173 20.8241C16.0729 20.2527 16.6159 19.6668 17.19 19.117C17.4335 18.8815 17.4958 18.6355 17.4301 18.3242C15.5266 18.7761 15.5266 18.7761 13.5831 18.3242C13.5164 18.6756 13.5461 18.9925 13.8651 19.2244C13.9956 19.3193 14.0964 19.4569 14.2108 19.5759L15.4569 20.8577ZM18.7814 19.7029C18.5019 19.6361 18.2458 19.5694 17.9857 19.5181C17.9553 19.5182 17.9252 19.5245 17.8973 19.5369C17.8693 19.5492 17.8441 19.5673 17.8231 19.5899C17.2436 20.1824 16.668 20.7789 16.0734 21.393C16.4834 21.7294 16.8832 22.0582 17.302 22.4027L18.7814 19.7029ZM14.8921 21.405C14.2911 20.7854 13.7102 20.1849 13.1254 19.5874C13.106 19.5684 13.083 19.5536 13.0579 19.5441C13.0328 19.5346 13.006 19.5306 12.9793 19.5322C12.7358 19.5824 12.4923 19.6422 12.2293 19.7044L13.6815 22.3997L14.8921 21.405ZM9.1946 20.4224C7.79654 20.5379 6.93511 21.5561 6.81775 22.1968C7.91779 22.2676 8.94967 21.5044 9.19071 20.4219L9.1946 20.4224ZM24.2213 22.1938C23.9422 21.2539 22.8734 20.4676 21.8381 20.4264C21.9554 21.4251 23.1003 22.2802 24.2174 22.1933L24.2213 22.1938ZM16.1762 26.6122C15.9863 25.833 15.8051 25.0818 15.6167 24.3322C15.6139 24.3228 15.6096 24.314 15.604 24.3061C15.5921 24.2907 15.5768 24.2785 15.5594 24.2705C15.5419 24.2624 15.5229 24.2588 15.5038 24.2599C15.4848 24.261 15.4663 24.2667 15.4498 24.2767C15.4333 24.2867 15.4194 24.3005 15.4092 24.3171C15.4014 24.329 15.3955 24.342 15.3917 24.3558C15.2578 24.888 14.9003 26.3843 14.8468 26.6122H16.1762ZM14.7679 22.5402C14.9432 22.8124 15.1034 23.072 15.2743 23.3245C15.3605 23.452 15.6537 23.4586 15.7394 23.3325C15.9103 23.0815 16.069 22.8229 16.24 22.5558L15.491 21.9412L14.7679 22.5402ZM10.0736 13.8194V11.8863C9.57931 12.0104 9.28177 12.3985 9.28859 12.8689C9.29 13.0973 9.3695 13.3178 9.51309 13.4917C9.65668 13.6655 9.85516 13.7816 10.0736 13.8194ZM20.9279 13.8194C21.4149 13.7245 21.7378 13.3173 21.7222 12.8177C21.7076 12.3543 21.3667 11.9476 20.9279 11.9024V13.8194ZM13.5544 5.47864C13.5544 5.1332 13.6834 4.98609 14.0146 4.966C14.4494 4.93989 14.7981 4.74257 15.0976 4.42324C15.4311 4.06675 15.5816 4.06726 15.9181 4.42676C16.2307 4.76014 16.5964 4.95144 17.0508 4.97002C17.3162 4.98107 17.4569 5.14675 17.4452 5.43295C17.4135 6.22625 17.0844 6.8619 16.4464 7.30776C16.2073 7.47446 15.9376 7.59596 15.6761 7.725C15.6011 7.76165 15.492 7.78525 15.4204 7.75663C14.5663 7.4137 13.8573 6.91312 13.6255 5.92149C13.5914 5.77638 13.5777 5.62625 13.5544 5.47864ZM15.5081 5.2055L14.3944 5.78793C14.5098 6.19763 14.7674 6.5024 15.1355 6.73889C15.4019 6.9101 15.6186 6.90759 15.8825 6.73588C16.2541 6.49437 16.5127 6.18659 16.613 5.78994L15.5081 5.2055Z" fill="#FF0000"/>
</svg>
